<?xml version="1.0" encoding="iso-8859-1"?>
<!-- Generator: Adobe Illustrator 18.1.1, SVG Export Plug-In . SVG Version: 6.00 Build 0)  -->
<svg version="1.1" id="Capa_1" xmlns="http://www.w3.org/2000/svg" xmlns:xlink="http://www.w3.org/1999/xlink" x="0px" y="0px"
	 viewBox="0 0 384.023 384.023" style="enable-background:new 0 0 384.023 384.023;" xml:space="preserve">
<g>
	<g id="Layer_5_21_">
		<path d="M320.234,66.713l-18.863,8.44c-1.483,0.664-2.931-0.734-3.684-1.401c-16.904-14.996-44.283-18.798-69.282-7.613
			L87.559,129.158c-25.029,11.199-40.446,34.189-40.494,56.813c-0.002,0.978,0.206,2.875-1.392,3.589l-18.881,8.448
			c-22.796,10.2-33.044,37.045-22.844,59.841c10.2,22.796,37.044,33.045,59.84,22.845c0,0,1.225-0.164,1.856,1.965
			c1.023,3.449,1.258,4.46,2.768,7.836c13.841,30.936,54.709,42.855,91.101,26.573l161.047-72.057
			c36.392-16.283,54.605-54.639,40.896-85.632c-1.072-2.425-1.637-4.022-3.764-6.923c-1.893-2.581-0.463-3.057-0.463-3.057
			c22.797-10.2,33.045-37.044,22.846-59.841C369.875,66.761,343.031,56.513,320.234,66.713z M95.318,146.501l140.847-63.02
			c14.762-6.604,30.486-6.275,41.959-0.347c0.818,0.423,2.48,1.311,0.883,2.025L68.455,179.367
			c-1.978,0.885-1.725-0.261-1.597-0.824C69.787,165.682,80.168,153.279,95.318,146.501z M312.8,227.667l-161.047,72.058
			c-26.829,12.004-56.436,4.383-65.998-16.989c-9.563-21.372,4.484-48.525,31.313-60.529l161.047-72.058
			c26.829-12.004,56.436-4.383,65.998,16.989S339.629,215.663,312.8,227.667z M345.973,95.66
			c-11.888,5.319-19.467,5.134-26.154,4.97c-6.077-0.149-11.325-0.277-20.527,3.84c-9.202,4.118-12.604,8.116-16.543,12.747
			c-4.334,5.095-9.246,10.869-21.134,16.188c-11.887,5.318-19.465,5.133-26.151,4.968c-6.077-0.148-11.324-0.277-20.524,3.839
			c-9.2,4.117-12.602,8.115-16.54,12.745c-4.334,5.095-9.246,10.87-21.133,16.188s-19.465,5.133-26.151,4.968
			c-6.076-0.148-11.323-0.277-20.523,3.839c-9.2,4.117-12.601,8.115-16.54,12.744c-4.333,5.095-9.245,10.869-21.131,16.188
			c-11.887,5.318-19.466,5.133-26.152,4.969c-6.076-0.149-11.323-0.277-20.524,3.839c-3.276,1.466-7.122-0.001-8.588-3.278
			s0.002-7.122,3.278-8.588c11.887-5.318,19.466-5.133,26.152-4.969c6.076,0.149,11.324,0.277,20.525-3.839
			c9.2-4.116,12.601-8.114,16.539-12.744c4.333-5.095,9.246-10.87,21.131-16.188c11.887-5.318,19.465-5.133,26.152-4.968
			c6.076,0.148,11.323,0.277,20.523-3.839c9.201-4.117,12.602-8.115,16.541-12.745c4.333-5.095,9.245-10.869,21.132-16.188
			s19.466-5.133,26.151-4.969c6.077,0.148,11.324,0.277,20.524-3.839c9.201-4.117,12.604-8.116,16.542-12.746
			c4.335-5.095,9.247-10.87,21.135-16.189s19.467-5.134,26.154-4.97c6.077,0.149,11.325,0.277,20.527-3.84
			c3.276-1.466,7.122,0.001,8.588,3.278S349.249,94.194,345.973,95.66z"/>
	</g>
</g>
<g>
</g>
<g>
</g>
<g>
</g>
<g>
</g>
<g>
</g>
<g>
</g>
<g>
</g>
<g>
</g>
<g>
</g>
<g>
</g>
<g>
</g>
<g>
</g>
<g>
</g>
<g>
</g>
<g>
</g>
</svg>
