<?xml version="1.0" encoding="iso-8859-1"?>
<!-- Generator: Adobe Illustrator 18.0.0, SVG Export Plug-In . SVG Version: 6.00 Build 0)  -->
<!DOCTYPE svg PUBLIC "-//W3C//DTD SVG 1.1//EN" "http://www.w3.org/Graphics/SVG/1.1/DTD/svg11.dtd">
<svg version="1.1" id="Capa_1" xmlns="http://www.w3.org/2000/svg" xmlns:xlink="http://www.w3.org/1999/xlink" x="0px" y="0px"
	 viewBox="0 0 54.838 54.838" style="enable-background:new 0 0 54.838 54.838;" xml:space="preserve">
<g>
	<path d="M54.475,19.032c-2.279-8.706-8.104-7.182-17.757-4.656c-1.453,0.38-3.448,0.617-5.561,0.867
		c-1.761,0.209-3.627,0.435-5.438,0.766c-0.648-0.663-1.32-1.381-2.023-2.136c-2.628-2.827-5.607-6.031-8.739-7.65
		c-4.826-2.496-8.75-1.604-12.347,2.809c-4.486,5.503-3.07,14.516,3.314,21.605c-0.086,0.391-0.164,0.793-0.227,1.216
		c-0.594,4.027,1.003,8.108,4.499,11.492c3.407,3.298,8.234,5.549,13.592,6.34c1.381,0.204,2.756,0.305,4.109,0.305
		c3.896,0,7.607-0.835,10.735-2.449c4.324-2.23,7.032-5.676,7.626-9.703c0.143-0.966,0.195-1.839,0.172-2.641
		C52.806,30.996,55.961,24.71,54.475,19.032z M6.614,28.389C1.561,22.209,0.489,14.8,4.161,10.295
		c1.898-2.328,3.734-3.454,5.832-3.454c1.236,0,2.563,0.391,4.046,1.158c2.823,1.46,5.676,4.528,8.193,7.236
		c0.373,0.401,0.74,0.796,1.099,1.177c-1.495,0.371-2.745,0.811-3.789,1.332c-2.746,1.369-4.436,3.144-5.144,5.41
		c-0.057,0.005-0.107,0.017-0.163,0.023c-0.895,0.09-1.717,0.252-2.468,0.488c-0.023,0.007-0.046,0.015-0.069,0.022
		c-1.591,0.514-2.861,1.365-3.828,2.575c-0.018,0.022-0.035,0.046-0.052,0.068c-0.208,0.266-0.402,0.548-0.582,0.849
		c-0.028,0.047-0.059,0.091-0.086,0.138c-0.173,0.302-0.332,0.62-0.478,0.956C6.655,28.313,6.632,28.348,6.614,28.389z
		 M44.28,37.545c-0.498,3.372-2.829,6.291-6.564,8.217c-3.845,1.983-8.689,2.671-13.635,1.943c-4.948-0.73-9.384-2.789-12.493-5.798
		c-3.02-2.923-4.409-6.391-3.911-9.763c0.082-0.558,0.186-1.076,0.31-1.561c0.106-0.415,0.231-0.8,0.369-1.164
		c0.016-0.042,0.031-0.084,0.047-0.125c0.141-0.354,0.299-0.684,0.474-0.99c0.019-0.033,0.038-0.064,0.057-0.096
		c0.184-0.309,0.384-0.596,0.606-0.855c0.007-0.008,0.015-0.015,0.022-0.023c0.233-0.269,0.486-0.513,0.763-0.73
		c0.002-0.001,0.003-0.003,0.005-0.004c0.266-0.208,0.558-0.389,0.867-0.553c0.035-0.018,0.069-0.038,0.104-0.056
		c0.301-0.151,0.623-0.281,0.966-0.393c0.052-0.017,0.105-0.033,0.158-0.049c0.347-0.105,0.713-0.194,1.103-0.262
		c0.05-0.009,0.103-0.015,0.153-0.023c0.412-0.066,0.842-0.117,1.304-0.145c0.211-0.013,0.449-0.005,0.677-0.005
		c0.259-0.002,0.523,0.005,0.79,0.019c0.274,0.016,0.557,0.037,0.856,0.068c0.124,0.012,0.246,0.022,0.37,0.037
		c0.102,0.012,0.201,0.02,0.304,0.034c0.27,0.036,0.545,0.084,0.82,0.131c0.158,0.027,0.314,0.049,0.473,0.079
		c0.251,0.047,0.505,0.102,0.758,0.156c0.179,0.038,0.356,0.072,0.535,0.112c0.382,0.087,0.766,0.18,1.149,0.277
		c0.041,0.01,0.083,0.019,0.124,0.03c1.319,0.337,2.636,0.724,3.892,1.09c2.106,0.615,4.096,1.195,5.718,1.435
		c5.221,0.77,8.548,1.372,10.527,2.451c0.013,0.007,0.026,0.014,0.039,0.021c1.528,0.845,2.238,1.982,2.386,3.718l0.041,0.478
		C44.46,35.901,44.411,36.657,44.28,37.545z M46.105,33.005c-0.006-0.019-0.014-0.035-0.02-0.053
		c-0.064-0.208-0.141-0.405-0.223-0.598c-0.037-0.088-0.075-0.176-0.116-0.261c-0.093-0.194-0.192-0.383-0.304-0.562
		c-0.031-0.05-0.067-0.097-0.1-0.146c-0.401-0.601-0.917-1.124-1.55-1.576c-0.034-0.024-0.067-0.049-0.101-0.073
		c-0.107-0.074-0.199-0.156-0.313-0.226c-0.117-0.072-0.251-0.133-0.374-0.201c-0.002-0.001-0.005-0.003-0.007-0.004
		c-0.675-0.373-1.445-0.691-2.322-0.968c-0.133-0.043-0.262-0.088-0.399-0.129c-0.139-0.041-0.287-0.08-0.432-0.119
		c-0.322-0.089-0.654-0.175-0.996-0.256c-0.037-0.009-0.074-0.017-0.111-0.026c-2.014-0.469-4.361-0.82-6.991-1.208
		c-0.372-0.055-0.771-0.131-1.193-0.224c-0.005-0.001-0.012-0.003-0.017-0.004c-1.262-0.279-2.722-0.706-4.247-1.152
		c-2.904-0.849-6.104-1.781-9.05-2.043c-0.132-0.014-0.266-0.029-0.394-0.04c0.653-1.43,1.911-2.58,3.875-3.56
		c2.842-1.417,7.003-1.911,10.674-2.346c2.183-0.258,4.245-0.503,5.832-0.918c10.515-2.752,13.619-3.254,15.316,3.228
		C53.746,24.145,51.238,29.311,46.105,33.005z"/>
	<path d="M13.958,32.543c-0.134-0.536-0.677-0.862-1.213-0.728c-0.536,0.134-0.861,0.677-0.728,1.213l1,4
		c0.114,0.454,0.521,0.757,0.969,0.757c0.081,0,0.162-0.009,0.244-0.03c0.536-0.134,0.861-0.677,0.728-1.213L13.958,32.543z"/>
	<path d="M35.958,19.543c-0.134-0.536-0.676-0.862-1.213-0.728c-0.536,0.134-0.861,0.677-0.728,1.213l1,4
		c0.114,0.454,0.521,0.757,0.969,0.757c0.081,0,0.162-0.009,0.244-0.03c0.536-0.134,0.861-0.677,0.728-1.213L35.958,19.543z"/>
	<path d="M30.432,41.661l-3.426,2.294c-0.459,0.307-0.582,0.929-0.275,1.387c0.193,0.288,0.509,0.444,0.832,0.444
		c0.191,0,0.385-0.055,0.555-0.169l3.426-2.294c0.459-0.307,0.582-0.929,0.275-1.387C31.511,41.477,30.889,41.354,30.432,41.661z"/>
	<path d="M9.989,14.786c0.191,0,0.385-0.055,0.555-0.169l3.426-2.294c0.459-0.307,0.582-0.929,0.275-1.387
		c-0.308-0.459-0.929-0.581-1.387-0.275l-3.426,2.294c-0.459,0.307-0.582,0.929-0.275,1.387C9.35,14.63,9.666,14.786,9.989,14.786z"
		/>
	<path d="M30.263,35.479c0.439,0,0.842-0.292,0.964-0.736c0.146-0.532-0.167-1.083-0.7-1.229l-3.976-1.092
		c-0.533-0.148-1.083,0.167-1.229,0.7c-0.146,0.532,0.167,1.083,0.7,1.229l3.976,1.092C30.086,35.468,30.176,35.479,30.263,35.479z"
		/>
	<path d="M9.474,21.986c0.332,0,0.657-0.165,0.847-0.466c0.295-0.467,0.155-1.084-0.312-1.379l-3.487-2.2
		c-0.465-0.293-1.085-0.155-1.379,0.312c-0.295,0.467-0.155,1.084,0.312,1.379l3.487,2.2C9.106,21.936,9.291,21.986,9.474,21.986z"
		/>
	<path d="M48.369,23.045l-3.053,2.771c-0.409,0.371-0.44,1.004-0.069,1.413c0.198,0.218,0.469,0.328,0.741,0.328
		c0.24,0,0.48-0.085,0.671-0.259l3.053-2.771c0.409-0.371,0.44-1.004,0.069-1.413C49.41,22.705,48.778,22.675,48.369,23.045z"/>
</g>
<g>
</g>
<g>
</g>
<g>
</g>
<g>
</g>
<g>
</g>
<g>
</g>
<g>
</g>
<g>
</g>
<g>
</g>
<g>
</g>
<g>
</g>
<g>
</g>
<g>
</g>
<g>
</g>
<g>
</g>
</svg>
