<?xml version="1.0" encoding="utf-8"?>
<!-- Generator: Adobe Illustrator 16.0.0, SVG Export Plug-In . SVG Version: 6.00 Build 0)  -->
<!DOCTYPE svg PUBLIC "-//W3C//DTD SVG 1.1//EN" "http://www.w3.org/Graphics/SVG/1.1/DTD/svg11.dtd">
<svg version="1.1" id="Layer_1" xmlns="http://www.w3.org/2000/svg" xmlns:xlink="http://www.w3.org/1999/xlink" x="0px" y="0px"
	 width="512px" height="512px" viewBox="0 0 512 512" enable-background="new 0 0 512 512" xml:space="preserve">
<path d="M439.694,255.744c-35.16-15.159-64.587-40.294-85.127-72.58c-27.764-43.539-88.554-73.765-159.197-73.765
	C98.515,109.399,20,166.192,20,236.235l0.646,104.527c13.375,153.541,327.512,135.569,368.93,135.569
	c60.834,0,110.108-33.454,110.108-74.688v-94.38C499.684,287.154,470.396,268.982,439.694,255.744z M377.818,263.027l-58.975,81.624
	c-25.328-0.52-56.277-2.105-87.957-5.963l94.56-131.293C339.809,228.937,357.471,247.681,377.818,263.027z M217.039,148.325
	c28.475,3,54.358,11.946,74.641,25.146L178.894,330.07c-27.395-5.979-53.134-14.307-73.802-25.812L217.039,148.325z
	 M157.057,150.875L69.19,273.266c-7.233-10.704-11.417-22.93-11.417-37.015C57.773,196.529,100.43,161.934,157.057,150.875z
	 M457.974,317.886c-9.193,13.007-33.931,26.336-68.384,26.336c-2.897,0-7.101,0.083-12.292,0.183l41.171-56.983
	c2.102,0.982,4.143,2.068,6.281,2.991c16.22,6.995,25.906,12.869,31.518,16.973C459.604,309.831,460.371,314.505,457.974,317.886z"
	/>
</svg>
