<?xml version="1.0" encoding="iso-8859-1"?>
<!-- Generator: Adobe Illustrator 18.0.0, SVG Export Plug-In . SVG Version: 6.00 Build 0)  -->
<!DOCTYPE svg PUBLIC "-//W3C//DTD SVG 1.1//EN" "http://www.w3.org/Graphics/SVG/1.1/DTD/svg11.dtd">
<svg version="1.1" id="Capa_1" xmlns="http://www.w3.org/2000/svg" xmlns:xlink="http://www.w3.org/1999/xlink" x="0px" y="0px"
	 viewBox="0 0 424.433 424.433" style="enable-background:new 0 0 424.433 424.433;" xml:space="preserve">
<g>
	<path d="M424.433,170.588c0-29.135-22.549-56.229-63.492-76.294c-39.809-19.509-92.627-30.252-148.724-30.252
		S103.302,74.785,63.492,94.294C22.549,114.358,0,141.453,0,170.588c0,0.027,0.002,53.464,0.002,53.464
		c0,36.857,22.379,71.34,63.015,97.096c39.928,25.307,92.916,39.244,149.205,39.244c56.284,0,109.27-13.937,149.196-39.244
		c40.635-25.756,63.014-60.239,63.014-97.096C424.432,224.052,424.433,170.601,424.433,170.588z M70.742,141.936
		c0.438,2.415,2.543,4.106,4.913,4.106c0.297,0,0.598-0.027,0.9-0.082c2.717-0.494,4.519-3.097,4.024-5.814
		c-1.181-6.498,6.19-14.001,9.196-16.403c1.05-0.769,2.087-1.547,3.115-2.319c5.359-4.026,10.421-7.829,16.301-9.698
		c7.844-2.494,15.507-4.64,22.906-6.43c-4.162,4.48-7.534,9.328-8.356,13.851c-0.494,2.717,1.308,5.32,4.024,5.814
		c0.303,0.055,0.604,0.082,0.9,0.082c2.37,0,4.475-1.692,4.913-4.106c1.106-6.081,14.39-17.374,23.612-23.568
		c0.767-0.387,1.531-0.777,2.291-1.165c5.929-3.034,11.528-5.9,17.108-6.443c5.645-0.548,11.854,0.484,18.424,1.577
		c5.61,0.934,11.411,1.899,17.203,1.899c5.17,0,10.585,2.781,16.316,5.725c2.466,1.266,4.972,2.54,7.534,3.637
		c0.028,0.015,0.052,0.033,0.081,0.046c3.886,1.643,15.742,7.708,19.141,13.825c0.914,1.645,2.618,2.573,4.376,2.573
		c0.821,0,1.654-0.203,2.423-0.63c2.414-1.341,3.284-4.385,1.943-6.799c-1.309-2.356-3.196-4.549-5.341-6.541
		c1.929-0.243,3.841-0.53,5.73-0.819c6.12-0.936,11.901-1.821,17.019-0.795c5.118,1.026,9.743,4.98,14.641,9.166
		c4.761,4.069,9.683,8.276,15.64,10.17c12.288,3.907,21.723,7.017,31.237,11.469c0.463,0.217,0.933,0.406,1.401,0.599
		c1.667,0.81,5.153,2.883,6.803,6.666c1.576,3.613,1.207,8.169-1.096,13.543c-1.088,2.538,0.088,5.478,2.626,6.565
		c0.643,0.275,1.311,0.406,1.968,0.406c1.939,0,3.785-1.136,4.598-3.032c3.23-7.538,3.738-14.378,1.52-20.358
		c4.751,0.726,9.171,1.541,12.345,3.677c4.008,2.695,8.191,4.818,12.237,6.871c5.702,2.893,11.088,5.625,14.465,9.314
		c6.087,6.65,10.728,14.104,13.577,21.751c-4.577,21.528-24.359,41.709-56.861,57.636c-38.466,18.851-89.722,29.232-144.323,29.232
		s-105.857-10.381-144.324-29.232c-30.434-14.915-49.717-33.559-55.806-53.545c0.26-0.914,0.52-1.843,0.785-2.799
		c2.242-8.086,4.783-17.252,10.838-23.867c4.453-4.865,11.087-9.091,18.11-13.565c2.442-1.556,4.968-3.165,7.444-4.831
		c3.679-2.475,8.881-3.518,14.39-4.621c2.535-0.508,5.112-1.028,7.684-1.7C70.498,135.787,70.173,138.808,70.742,141.936z
		 M67.893,103.273c38.467-18.851,89.723-29.232,144.324-29.232s105.857,10.381,144.323,29.232
		c31.361,15.368,50.88,34.697,56.324,55.374c-1.743-2.367-3.633-4.667-5.663-6.885c-4.606-5.032-11.068-8.31-17.317-11.48
		c-3.776-1.916-7.682-3.897-11.18-6.25c-5.369-3.612-11.742-4.567-17.905-5.49c-4.412-0.661-8.6-1.297-12.372-2.813
		c-0.637-0.301-1.115-0.494-1.416-0.609c-9.996-4.661-19.687-7.859-32.262-11.857c-4.027-1.28-7.983-4.662-12.171-8.241
		c-5.392-4.609-11.502-9.833-19.174-11.37c-6.848-1.373-13.787-0.311-20.496,0.715c-5.485,0.839-10.667,1.631-15.626,1.149
		c-2.197-0.214-4.481-0.93-6.845-1.915c-0.025-0.011-0.05-0.022-0.073-0.032c-2.346-0.982-4.769-2.225-7.261-3.505
		c-6.538-3.357-13.298-6.83-20.886-6.83c-4.966,0-10.112-0.857-15.562-1.764c-6.919-1.151-14.071-2.343-21.034-1.666
		c-7.474,0.727-14.195,4.167-20.696,7.494c-4.931,2.523-9.588,4.907-14.011,5.793c-10.985,2.201-22.678,5.264-34.752,9.102
		c-7.499,2.384-13.487,6.883-19.278,11.233c-3.975,2.986-7.729,5.807-11.597,7.616c-4.104,1.921-8.932,2.888-13.599,3.824
		c-6.229,1.249-12.67,2.539-18.007,6.129c-2.373,1.596-4.845,3.171-7.235,4.694c-7.596,4.839-14.77,9.409-20.114,15.248
		c-1.525,1.667-2.86,3.433-4.049,5.258C18.581,136.446,37.774,118.033,67.893,103.273z M212.222,350.391
		c-111.504,0-202.22-56.676-202.22-126.34v-20.694c10.334,16.373,28.47,31.263,53.49,43.524
		c39.81,19.509,92.628,30.252,148.725,30.252s108.915-10.744,148.724-30.252c25.021-12.262,43.157-27.152,53.491-43.526v20.696
		C414.432,293.716,323.721,350.391,212.222,350.391z"/>
	<path d="M127.069,175.872c6.316,5.619,9.199,8.183,24.572,16.275c10.712,5.639,24.735,11.125,39.486,15.445
		c8.324,2.438,17.314,2.899,26.286,2.899c2.757,0,5.515-0.043,8.248-0.087c2.682-0.042,5.354-0.085,7.999-0.085
		c8.421,0,16.248-1.507,23.153-2.837c2.658-0.512,5.169-0.996,7.633-1.387c3.999-0.635,8.074-0.888,12.015-1.133
		c6.925-0.431,13.466-0.837,19.422-3.173c8.555-3.354,14.074-9.467,18.945-14.86c1.974-2.187,3.839-4.251,5.658-5.821
		c11.339-9.783,17.248-19.082,17.563-27.639c0.2-5.443-1.907-10.535-6.097-14.723c-1.951-1.952-5.119-1.952-7.07,0
		c-1.953,1.953-1.953,5.119,0,7.071c2.233,2.234,3.272,4.617,3.174,7.284c-0.144,3.896-2.706,10.604-14.102,20.435
		c-2.291,1.977-4.359,4.266-6.548,6.69c-4.332,4.797-8.812,9.758-15.174,12.252c-4.494,1.762-10.273,2.121-16.392,2.501
		c-4.175,0.26-8.491,0.528-12.963,1.238c-2.626,0.417-5.215,0.915-7.956,1.443c-6.782,1.306-13.795,2.657-21.262,2.657
		c-2.697,0-5.423,0.043-8.157,0.086c-10.884,0.172-22.137,0.35-31.565-2.411c-14.131-4.139-27.498-9.359-37.639-14.697
		c-14.296-7.525-16.553-9.533-22.585-14.899c-2.341-2.082-5.254-4.673-9.545-8.197c-2.133-1.752-5.285-1.443-7.037,0.691
		c-1.752,2.134-1.443,5.285,0.691,7.038C121.963,171.33,124.794,173.849,127.069,175.872z"/>
	<path d="M58.114,179.659c-11.666-8.198-17.181-15.388-14.752-19.233c2.31-3.657,5.886-8.617,10.264-9.479
		c2.71-0.533,4.475-3.162,3.941-5.871c-0.534-2.71-3.168-4.474-5.871-3.94c-8.166,1.606-13.492,8.731-16.789,13.951
		c-7.407,11.728,5.405,24.286,17.457,32.755c2.583,1.815,5.179,3.731,7.926,5.76c7.663,5.66,15.588,11.512,24.83,16.369
		c9.281,4.877,19.424,8.592,30.161,12.524c2.145,0.786,4.3,1.575,6.459,2.378c2.889,1.075,5.771,2.244,8.824,3.481
		c6.836,2.771,13.905,5.638,21.47,7.581c6.124,1.573,12.467,1.069,18.599,0.58c4.915-0.391,9.556-0.761,13.934-0.114
		c9.844,1.454,20.386,2.914,31.511,3.398c0.074,0.003,0.148,0.005,0.222,0.005c2.661,0,4.875-2.098,4.991-4.783
		c0.12-2.759-2.019-5.092-4.777-5.212c-10.659-0.464-20.502-1.826-30.485-3.3c-5.499-0.812-10.932-0.38-16.188,0.039
		c-5.562,0.442-10.812,0.86-15.316-0.297c-6.916-1.777-13.67-4.515-20.201-7.163c-2.983-1.209-6.068-2.46-9.094-3.586
		c-2.175-0.81-4.347-1.605-6.507-2.396c-10.417-3.815-20.256-7.418-28.948-11.987c-8.567-4.501-16.181-10.124-23.542-15.56
		C63.435,183.492,60.793,181.542,58.114,179.659z"/>
	<path d="M201.566,156.739c1.888,0.198,3.706,0.291,5.459,0.291c12.78,0,21.98-4.909,27.677-9.337
		c4.206-3.27,5.231-6.944,5.352-9.45c0.307-6.442-4.77-12.091-9.226-16.292c-1.175-1.108-2.121-2.026-2.935-2.816
		c-3.938-3.823-5.363-5.088-11.88-8.771c-2.404-1.359-5.455-0.51-6.813,1.894c-1.358,2.404-0.511,5.454,1.894,6.813
		c5.686,3.212,6.482,3.985,9.834,7.24c0.844,0.818,1.823,1.77,3.041,2.917c5.617,5.296,6.134,7.736,6.096,8.54
		c-0.028,0.596-0.533,1.28-1.499,2.031c-5.027,3.908-13.606,8.294-25.954,6.997c-12.163-1.278-24.514-7.984-28.729-15.597
		c-1.336-2.416-4.38-3.291-6.796-1.952c-2.416,1.337-3.29,4.38-1.952,6.796C169.91,144.667,183.349,154.824,201.566,156.739z"/>
	<path d="M346.568,220.743c0.696,0,1.404-0.146,2.078-0.455c3.422-1.566,5.993-2.002,8.479-2.423
		c6.288-1.065,10.784-2.473,15.794-11.968c1.603-3.036,4.606-5.727,7.787-8.575c3.246-2.907,6.603-5.914,8.85-9.688
		c3.528-5.926,3.461-15.558,1.57-22.01c-1.446-4.937-3.946-8.414-7.229-10.055c-2.47-1.234-5.474-0.235-6.708,2.236
		c-1.235,2.47-0.234,5.473,2.235,6.708c0.291,0.146,1.302,1.178,2.105,3.923c1.543,5.264,0.953,11.531-0.565,14.082
		c-1.466,2.461-4.12,4.838-6.93,7.355c-3.697,3.312-7.521,6.736-9.959,11.358c-3.08,5.836-4.364,6.054-8.62,6.775
		c-2.682,0.454-6.354,1.076-10.972,3.19c-2.511,1.149-3.614,4.117-2.465,6.627C342.86,219.659,344.673,220.743,346.568,220.743z"/>
</g>
<g>
</g>
<g>
</g>
<g>
</g>
<g>
</g>
<g>
</g>
<g>
</g>
<g>
</g>
<g>
</g>
<g>
</g>
<g>
</g>
<g>
</g>
<g>
</g>
<g>
</g>
<g>
</g>
<g>
</g>
</svg>
