<?xml version="1.0" encoding="iso-8859-1"?>
<!-- Generator: Adobe Illustrator 18.0.0, SVG Export Plug-In . SVG Version: 6.00 Build 0)  -->
<!DOCTYPE svg PUBLIC "-//W3C//DTD SVG 1.1//EN" "http://www.w3.org/Graphics/SVG/1.1/DTD/svg11.dtd">
<svg version="1.1" id="Capa_1" xmlns="http://www.w3.org/2000/svg" xmlns:xlink="http://www.w3.org/1999/xlink" x="0px" y="0px"
	 viewBox="0 0 323.268 323.268" style="enable-background:new 0 0 323.268 323.268;" xml:space="preserve">
<g>
	<path d="M35.543,266.361c-2.416-0.605-4.855,0.862-5.458,3.273c-0.957,3.823-1.756,7.744-2.376,11.655
		c-0.39,2.455,1.285,4.76,3.739,5.149c0.239,0.038,0.477,0.056,0.711,0.056c2.174,0,4.087-1.58,4.438-3.796
		c0.579-3.651,1.325-7.312,2.218-10.879C39.419,269.408,37.953,266.964,35.543,266.361z"/>
	<path d="M83.024,192.16c-6.482,4.62-12.6,9.846-18.182,15.534c-1.74,1.774-1.714,4.623,0.061,6.364
		c0.876,0.859,2.014,1.288,3.151,1.288c1.166,0,2.331-0.45,3.212-1.348c5.214-5.313,10.927-10.194,16.981-14.509
		c2.024-1.442,2.496-4.252,1.054-6.276C87.858,191.189,85.048,190.717,83.024,192.16z"/>
	<path d="M126.079,171.772c-7.686,2.082-15.233,4.868-22.434,8.279c-2.246,1.064-3.204,3.747-2.14,5.994
		c0.769,1.624,2.385,2.574,4.069,2.574c0.646,0,1.302-0.14,1.924-0.434c6.719-3.184,13.763-5.783,20.934-7.727
		c2.399-0.65,3.816-3.122,3.167-5.52C130.949,172.54,128.474,171.122,126.079,171.772z"/>
	<path d="M55.907,224.997c-2.048-1.405-4.851-0.879-6.255,1.172c-4.505,6.583-8.447,13.6-11.716,20.858
		c-1.021,2.266-0.012,4.93,2.254,5.951c0.601,0.27,1.229,0.398,1.846,0.398c1.716,0,3.355-0.987,4.105-2.653
		c3.052-6.775,6.732-13.326,10.938-19.472C58.484,229.201,57.959,226.4,55.907,224.997z"/>
	<path d="M266.151,231.205c4.207,6.14,7.889,12.687,10.944,19.458c0.751,1.665,2.39,2.65,4.104,2.65
		c0.618,0,1.247-0.128,1.848-0.399c2.266-1.022,3.273-3.687,2.251-5.952c-3.272-7.254-7.217-14.267-11.724-20.843
		c-1.404-2.05-4.205-2.574-6.255-1.169C265.269,226.354,264.745,229.155,266.151,231.205z"/>
	<path d="M240.191,192.126c-2.025-1.441-4.835-0.969-6.276,1.056c-1.441,2.025-0.969,4.834,1.056,6.275
		c6.057,4.313,11.773,9.192,16.988,14.503c0.882,0.897,2.046,1.347,3.211,1.347c1.139,0,2.277-0.429,3.153-1.289
		c1.773-1.741,1.799-4.59,0.058-6.364C252.795,201.967,246.675,196.743,240.191,192.126z"/>
	<path d="M173.539,167.579c-7.889-0.687-16.009-0.685-23.908,0.008c-2.475,0.217-4.307,2.4-4.089,4.876
		c0.205,2.342,2.17,4.107,4.478,4.107c0.132,0,0.265-0.006,0.398-0.018c7.378-0.646,14.97-0.65,22.34-0.008
		c2.472,0.222,4.658-1.616,4.874-4.092C177.848,169.977,176.015,167.795,173.539,167.579z"/>
	<path d="M219.555,180.023c-7.209-3.411-14.764-6.194-22.454-8.273c-2.402-0.646-4.87,0.771-5.519,3.17
		c-0.648,2.399,0.77,4.87,3.169,5.519c7.177,1.94,14.227,4.538,20.954,7.721c0.622,0.294,1.276,0.433,1.922,0.433
		c1.686,0,3.302-0.952,4.07-2.577C222.761,183.769,221.801,181.086,219.555,180.023z"/>
	<path d="M284.449,271.82c0.895,3.572,1.642,7.231,2.22,10.878c0.352,2.216,2.264,3.796,4.439,3.796
		c0.234,0,0.472-0.018,0.711-0.056c2.454-0.389,4.129-2.694,3.739-5.149c-0.619-3.907-1.419-7.828-2.378-11.655
		c-0.603-2.41-3.045-3.875-5.459-3.272C285.311,266.965,283.846,269.409,284.449,271.82z"/>
	<path d="M321.134,271.658c0-87.949-71.552-159.5-159.5-159.5c-87.948,0-159.5,71.551-159.5,159.5v30.999v0.001
		c0,0.002,0,0.003,0,0.005c0,2.485,2.015,4.5,4.5,4.5H68.13l-8.021,8.516c-1.23,1.307-1.566,3.221-0.854,4.87
		c0.712,1.648,2.335,2.716,4.131,2.716h26.687c0.013,0,0.025,0.003,0.037,0.003c0.011,0,0.023-0.003,0.034-0.003h142.858
		c0.011,0,0.023,0,0.034,0h26.842c0.008,0.001,0.016,0,0.02,0c2.485,0,4.5-2.015,4.5-4.5c0-1.325-0.571-2.516-1.482-3.339
		l-7.782-8.263h61.5c2.485,0,4.5-2.015,4.5-4.5c0-0.199-0.007-0.397-0.008-0.596c0.001-0.026,0.008-0.049,0.008-0.075V271.658z
		 M100.534,314.265l61.099-64.871l61.093,64.871H100.534z M235.089,314.265l-70.18-74.52c-0.851-0.903-2.036-1.415-3.276-1.415
		s-2.426,0.512-3.275,1.415l-70.187,74.52H73.806l87.826-93.254l87.826,93.254H235.089z M246.657,298.163l-81.749-86.801
		c-0.851-0.903-2.036-1.415-3.276-1.415c-1.24,0-2.426,0.512-3.276,1.415l-81.749,86.801H11.2c2.387-80.914,68.952-146,150.434-146
		c81.481,0,148.047,65.086,150.434,146H246.657z M161.634,143.163c-66.579,0-123.751,41.01-147.608,99.092
		c13.713-68.957,74.682-121.097,147.608-121.097c72.926,0,133.895,52.14,147.608,121.097
		C285.385,184.173,228.213,143.163,161.634,143.163z"/>
	<path d="M183.909,66.138c6.274,6.439,6.274,16.528,0,22.967c-1.734,1.78-1.698,4.629,0.082,6.363
		c0.875,0.853,2.008,1.277,3.141,1.277c1.171,0,2.341-0.455,3.223-1.359c9.707-9.961,9.707-25.568,0-35.53
		c-6.274-6.439-6.274-16.528,0-22.967c9.707-9.961,9.707-25.568,0-35.53c-1.735-1.781-4.584-1.815-6.363-0.082
		c-1.78,1.735-1.816,4.583-0.082,6.364c6.274,6.44,6.274,16.528,0,22.968C174.203,40.57,174.203,56.176,183.909,66.138z"/>
	<path d="M132.912,66.137c6.274,6.44,6.274,16.529,0,22.968c-1.734,1.78-1.698,4.629,0.082,6.364
		c0.875,0.852,2.008,1.277,3.141,1.277c1.171,0,2.341-0.455,3.223-1.359c9.706-9.961,9.706-25.568,0-35.53
		c-6.274-6.439-6.274-16.528,0-22.967c9.706-9.961,9.706-25.568,0-35.529c-1.734-1.781-4.584-1.816-6.363-0.083
		c-1.779,1.734-1.816,4.583-0.082,6.363c6.274,6.44,6.274,16.529,0,22.968C123.206,40.57,123.206,56.176,132.912,66.137z"/>
</g>
<g>
</g>
<g>
</g>
<g>
</g>
<g>
</g>
<g>
</g>
<g>
</g>
<g>
</g>
<g>
</g>
<g>
</g>
<g>
</g>
<g>
</g>
<g>
</g>
<g>
</g>
<g>
</g>
<g>
</g>
</svg>
