<?xml version="1.0" encoding="iso-8859-1"?>
<!-- Generator: Adobe Illustrator 18.0.0, SVG Export Plug-In . SVG Version: 6.00 Build 0)  -->
<!DOCTYPE svg PUBLIC "-//W3C//DTD SVG 1.1//EN" "http://www.w3.org/Graphics/SVG/1.1/DTD/svg11.dtd">
<svg version="1.1" id="Capa_1" xmlns="http://www.w3.org/2000/svg" xmlns:xlink="http://www.w3.org/1999/xlink" x="0px" y="0px"
	 viewBox="0 0 57.6 57.6" style="enable-background:new 0 0 57.6 57.6;" xml:space="preserve">
<g>
	<path d="M48.8,47.673l-0.018-1.064L48.36,46.31l-5.599-2.215l2.683-2.741l0.355-0.266l-0.018-1.064l-0.613-0.434L39.8,38.745
		v-1.319c0-1.021-1.033-1.8-2.02-1.522C33.886,37.013,29.397,37.6,24.8,37.6s-9.087-0.587-12.98-1.696
		c-0.984-0.276-2.02,0.501-2.02,1.522v12.849c0,4.039,3.285,7.325,7.324,7.325h15.352c3.644,0,6.666-2.677,7.224-6.167l8.448-3.318
		L48.8,47.673z M16.8,52.6c-0.553,0-1-0.447-1-1s0.447-1,1-1c9.757,0,18-4.121,18-9c0-0.553,0.447-1,1-1s1,0.447,1,1
		C36.8,47.768,28.014,52.6,16.8,52.6z M42.76,41.235l-2.011,2.056l-0.95-0.373V40.77L42.76,41.235z M39.8,49.245v-4.179l1.452,0.57
		l0,0l3.869,1.519L39.8,49.245z"/>
	<path d="M10.8,9.286v24.622c0.199-0.034,0.401-0.061,0.61-0.061c0.321,0,0.641,0.044,0.95,0.131
		C16.086,35.039,20.385,35.6,24.8,35.6s8.714-0.561,12.433-1.62c0.316-0.089,0.637-0.133,0.958-0.133
		c0.209,0,0.41,0.027,0.609,0.061V18.701l0.62-0.528c0.996-0.847,1.718-1.538,2.146-2.056c0.394-0.475,0.375-1.18-0.042-1.641
		c-0.198-0.219-0.428-0.405-0.701-0.471l0.064-0.081c0.443-0.563,0.537-1.319,0.246-1.973c-0.287-0.644-0.9-1.072-1.605-1.118
		c-0.331-0.021-0.782-0.049-0.981,0.043c0.057-1.086-0.396-1.725-0.783-2.065c-0.168-0.15-0.378-0.232-0.597-0.276
		C34.889,4.807,30.329,2.6,24.8,2.6c-1.033,0-2.038-0.029-3.001-0.058L21.735,2.54c-0.329-0.598-0.932-0.984-1.641-0.984
		c-0.182,0-0.358,0.025-0.528,0.073c-0.021-0.062-0.044-0.122-0.067-0.183c-0.292-0.729-0.989-1.198-1.777-1.198
		c-0.567,0-1.106,0.248-1.477,0.68c-0.09,0.104-0.177,0.214-0.255,0.321c-0.061,0.08-0.138,0.181-0.286-0.02
		c-0.396-0.531-0.891-0.947-1.36-1.141c-0.429-0.173-0.944-0.092-1.295,0.205c-0.394,0.331-0.854,0.945-0.839,2.011
		c-0.341-0.036-0.684-0.04-0.98-0.028c-0.702,0.028-1.327,0.44-1.63,1.076C9.292,4.001,9.368,4.76,9.843,5.33
		c-0.257,0.144-0.49,0.324-0.694,0.538c-0.431,0.45-0.466,1.156-0.083,1.641C9.425,7.966,10.016,8.568,10.8,9.286z M25.55,17.511
		c0.172-0.014,0.345-0.016,0.519,0.001c0.018,0.002,0.036,0.002,0.054,0.004c0.412,0.048,0.82,0.182,1.201,0.408l0.084,0.05
		c0.139,0.09,0.272,0.188,0.393,0.298c0.046,0.042,0.086,0.088,0.129,0.132c0.095,0.097,0.184,0.2,0.264,0.309
		c0.041,0.055,0.08,0.111,0.117,0.169c0.074,0.116,0.138,0.239,0.196,0.365c0.024,0.053,0.052,0.104,0.073,0.158
		c0.007,0.019,0.01,0.041,0.017,0.06c-0.037,0.033-0.07,0.068-0.107,0.102c-0.13,0.12-0.257,0.241-0.381,0.363
		c-0.216,0.209-0.423,0.424-0.624,0.644c-0.644,0.703-1.214,1.45-1.69,2.251c-0.008-0.5-0.04-0.988-0.087-1.469
		c-0.016-0.166-0.042-0.323-0.062-0.484c-0.044-0.344-0.096-0.684-0.161-1.017c-0.044-0.229-0.09-0.456-0.142-0.676
		c-0.052-0.216-0.114-0.427-0.175-0.638c-0.088-0.307-0.176-0.613-0.28-0.903c0.177-0.057,0.359-0.094,0.542-0.117
		C25.472,17.515,25.511,17.514,25.55,17.511z M27.537,13.276l0.053,0.136c0.069,0.178,0.12,0.357,0.155,0.534
		c0.033,0.177,0.055,0.358,0.055,0.545c0,0.243-0.034,0.464-0.083,0.671c-0.018,0.074-0.045,0.139-0.067,0.208
		c-0.04,0.124-0.082,0.246-0.133,0.354c-0.01,0.022-0.022,0.041-0.033,0.062c-0.528-0.189-1.094-0.295-1.683-0.295
		c-0.286,0-0.568,0.032-0.846,0.08c-0.078,0.013-0.154,0.035-0.232,0.052c-0.182,0.041-0.361,0.088-0.538,0.149
		c-0.038,0.013-0.078,0.018-0.116,0.032c-0.426-0.792-0.911-1.517-1.45-2.172c0.201-0.221,0.393-0.449,0.58-0.678
		c0.059-0.073,0.115-0.143,0.172-0.215c0.028-0.035,0.057-0.071,0.085-0.106c0.03-0.038,0.06-0.074,0.09-0.112
		c0.076-0.097,0.145-0.191,0.218-0.286c0.051-0.067,0.1-0.131,0.149-0.197c0.094-0.125,0.181-0.243,0.267-0.361
		c0.031-0.042,0.071-0.094,0.101-0.135c0.179-0.035,0.351-0.053,0.52-0.053C26.021,11.491,27.069,12.227,27.537,13.276z
		 M38.655,12.839c0.19-0.02,0.38-0.023,0.557-0.017c-0.307,0.418-0.431,0.942-0.34,1.456c0.077,0.437,0.3,0.832,0.629,1.128
		c-0.185,0.182-0.414,0.398-0.701,0.656v-1.233l-1.224,0.281c-0.286,0.066-0.591,0.143-0.906,0.228
		c-0.239,0.063-0.471,0.13-0.701,0.198c-0.016,0.005-0.031,0.009-0.046,0.014c-2.303,0.685-4.18,1.591-5.699,2.634
		c-0.004-0.009-0.011-0.016-0.016-0.025c-0.017-0.033-0.035-0.065-0.053-0.097c-0.074-0.134-0.163-0.256-0.248-0.382
		c-0.05-0.074-0.092-0.153-0.146-0.224c-0.021-0.027-0.044-0.051-0.065-0.078c-0.103-0.13-0.218-0.247-0.333-0.365
		c-0.056-0.057-0.103-0.122-0.161-0.177c0.112-0.205,0.204-0.416,0.285-0.632c0.003-0.009,0.005-0.018,0.008-0.026
		c0.088-0.24,0.154-0.486,0.203-0.737c0.01-0.052,0.021-0.103,0.029-0.155c0.043-0.261,0.072-0.525,0.072-0.795
		c0-0.248-0.024-0.49-0.059-0.729c-0.002-0.011-0.001-0.022-0.003-0.033c0.399-0.268,0.688-0.684,0.787-1.184
		c0.033-0.17,0.082-0.351,0.146-0.538c0.234,0.31,0.559,0.53,0.966,0.656l1.346,0.416l-0.051-1.407
		c-0.014-0.4,0.06-0.723,0.141-0.949c0.031,0.041,0.062,0.083,0.092,0.126c0.414,0.585,1.057,0.92,1.763,0.92
		c0.162,0,0.322-0.02,0.477-0.055c0.053-0.012,0.103-0.035,0.155-0.051c0.099-0.03,0.198-0.06,0.292-0.104
		c0.059-0.028,0.113-0.066,0.17-0.099c0.08-0.047,0.16-0.093,0.234-0.15c0.056-0.043,0.106-0.094,0.159-0.143
		c0.046-0.043,0.097-0.079,0.14-0.126c0.036,0.454,0.225,0.887,0.536,1.216c0.363,0.383,0.851,0.594,1.373,0.594L38.655,12.839z
		 M35.341,9.381c-0.09,0.096-0.177,0.196-0.258,0.301c-0.128,0.164-0.222,0.102-0.285,0.013c-0.079-0.112-0.162-0.223-0.246-0.325
		c-0.373-0.457-0.923-0.72-1.51-0.72c-0.767,0-1.457,0.454-1.758,1.157c-0.025,0.06-0.05,0.119-0.072,0.181
		c-0.215-0.067-0.437-0.088-0.655-0.076c0.75-0.546,1.243-1.424,1.243-2.42c0-0.553-0.447-1-1-1s-1,0.447-1,1c0,0.552-0.448,1-1,1
		c-0.553,0-1,0.447-1,1s0.447,1,1,1c0.183,0,0.36-0.022,0.534-0.054c-0.202,0.188-0.368,0.416-0.469,0.684
		c-0.042,0.111-0.062,0.215-0.098,0.324c-0.739-0.972-1.819-1.664-3.063-1.881c0.079-0.257,0.116-0.528,0.079-0.806
		c-0.089-0.681-0.52-1.251-1.15-1.528c-0.122-0.054-0.247-0.103-0.38-0.15c-0.058-0.021-0.091-0.053-0.105-0.101
		c-0.01-0.032-0.018-0.098,0.041-0.177c0.289-0.391,0.507-0.828,0.619-1.233c0.042,1.618,1.364,2.923,2.992,2.923
		c0.553,0,1-0.447,1-1s-0.447-1-1-1c-0.552,0-1-0.448-1-1c0-0.348-0.188-0.639-0.457-0.818C30.352,5.019,33.605,6.708,35.341,9.381z
		 M11.803,5.736c0.105-0.52-0.011-1.058-0.347-1.464l0.077-0.002c0.168,0,0.347,0.009,0.523,0.03
		c0.606,0.074,1.178-0.133,1.594-0.562c0.311-0.319,0.504-0.741,0.55-1.187c0.872,1.015,2.585,0.979,3.396-0.113
		c0.03-0.04,0.06-0.079,0.091-0.118c0.075,0.229,0.141,0.554,0.117,0.952L17.72,4.677l1.354-0.38
		c0.416-0.117,0.75-0.335,0.974-0.665c0.064,0.205,0.112,0.397,0.144,0.574c0.179,1.04,1.241,1.745,2.295,1.543
		c-0.347,0.546-0.439,1.197-0.253,1.812c0.2,0.656,0.69,1.167,1.341,1.399c0.054,0.02,0.107,0.04,0.159,0.061
		c-0.184,0.171-0.382,0.417-0.652,0.777l-0.001,0l-0.013,0.018c-0.099,0.133-0.207,0.28-0.329,0.447
		c-0.124,0.168-0.261,0.355-0.402,0.544c-0.042,0.055-0.085,0.112-0.128,0.169c-0.107,0.141-0.219,0.285-0.332,0.429
		c-0.014,0.018-0.028,0.036-0.042,0.054c-0.042,0.052-0.082,0.104-0.124,0.157c-0.154,0.19-0.313,0.377-0.474,0.558
		c-2.766-2.533-6.241-3.821-8.821-4.456l-0.156-0.019L12.103,7.68c0,0,0,0,0,0h0h0c-0.032,0-0.063,0.001-0.094,0.004
		c-0.364-0.338-0.645-0.613-0.859-0.837C11.483,6.561,11.716,6.171,11.803,5.736z"/>
</g>
<g>
</g>
<g>
</g>
<g>
</g>
<g>
</g>
<g>
</g>
<g>
</g>
<g>
</g>
<g>
</g>
<g>
</g>
<g>
</g>
<g>
</g>
<g>
</g>
<g>
</g>
<g>
</g>
<g>
</g>
</svg>
