<?xml version="1.0" encoding="iso-8859-1"?>
<!-- Generator: Adobe Illustrator 18.0.0, SVG Export Plug-In . SVG Version: 6.00 Build 0)  -->
<!DOCTYPE svg PUBLIC "-//W3C//DTD SVG 1.1//EN" "http://www.w3.org/Graphics/SVG/1.1/DTD/svg11.dtd">
<svg version="1.1" id="Capa_1" xmlns="http://www.w3.org/2000/svg" xmlns:xlink="http://www.w3.org/1999/xlink" x="0px" y="0px"
	 viewBox="0 0 55.74 55.74" style="enable-background:new 0 0 55.74 55.74;" xml:space="preserve">
<g>
	<path d="M53.428,12.729H51.81c-0.172,0-0.313-0.141-0.313-0.313v-1.618c0-1.275-1.037-2.313-2.312-2.313h-1.619
		c-0.172,0-0.312-0.14-0.312-0.312V6.555c0-1.274-1.037-2.312-2.312-2.312h-1.619c-0.172,0-0.313-0.141-0.313-0.313V2.313
		C43.012,1.037,41.975,0,40.7,0h-2.065c-0.925,0-1.759,0.55-2.125,1.401l-1.724,4.022c-2.888,3.491-5.9,6.889-9.005,10.202
		c-1.138,1.215-2.293,2.419-3.464,3.613c-0.059,0.06-0.117,0.121-0.177,0.181c-1.18,1.201-2.376,2.39-3.586,3.566
		c-0.041,0.04-0.082,0.081-0.124,0.121c-1.225,1.189-2.465,2.364-3.716,3.524c-0.03,0.028-0.06,0.056-0.09,0.084
		c-1.27,1.175-2.552,2.335-3.844,3.475c-0.021,0.019-0.042,0.038-0.063,0.056L9.636,31.2l0.004,0.002
		c-1.392,1.212-2.797,2.409-4.217,3.584l-4.054,1.737C0.537,36.881,0,37.696,0,38.601v2.152c0,1.246,1.014,2.26,2.26,2.26h1.724
		c0.143,0,0.259,0.116,0.259,0.26v1.723c0,1.246,1.014,2.26,2.26,2.26h1.724c0.144,0,0.26,0.116,0.26,0.26v1.724
		c0,1.246,1.014,2.26,2.26,2.26h1.724c0.143,0,0.259,0.116,0.259,0.259v1.724c0,1.246,1.014,2.26,2.26,2.26h2.152
		c0.906,0,1.722-0.538,2.077-1.37l1.737-4.053c2.88-3.481,5.883-6.869,8.978-10.174c1.165-1.244,2.348-2.477,3.546-3.698
		c0.03-0.031,0.06-0.062,0.09-0.092c1.21-1.232,2.436-2.451,3.676-3.655c0.012-0.011,0.023-0.023,0.035-0.034
		c2.514-2.441,5.086-4.823,7.697-7.126l1.13-0.997l-0.006-0.003c1.392-1.212,2.796-2.409,4.217-3.584l4.023-1.724
		c0.851-0.365,1.4-1.199,1.4-2.125V15.04C55.74,13.766,54.703,12.729,53.428,12.729z M39.161,28.115
		c-0.077,0.072-0.155,0.144-0.232,0.216c-1.083,1.012-2.155,2.036-3.218,3.07c-0.086,0.084-0.172,0.168-0.258,0.252
		c-1.07,1.044-2.13,2.098-3.179,3.164c-0.045,0.046-0.09,0.092-0.135,0.138c-1.077,1.097-2.145,2.202-3.199,3.32l-15.727-7.573
		c0.016-0.014,0.031-0.029,0.047-0.043c1.101-0.986,2.191-1.983,3.272-2.991c0.105-0.098,0.211-0.196,0.316-0.294
		c1.061-0.992,2.111-1.995,3.153-3.008c0.109-0.106,0.217-0.212,0.326-0.318c1.047-1.023,2.086-2.055,3.113-3.098
		c0.073-0.075,0.146-0.15,0.219-0.224c1.057-1.077,2.106-2.163,3.141-3.261l15.727,7.573C41.394,26.052,40.273,27.078,39.161,28.115
		z M19.321,49.154l-1.943,4.43c-0.04,0.095-0.134,0.156-0.238,0.156h-2.152c-0.144,0-0.26-0.116-0.26-0.26v-1.724
		c0-1.245-1.014-2.259-2.259-2.259h-1.724c-0.144,0-0.26-0.116-0.26-0.26v-1.724c0-1.246-1.014-2.26-2.26-2.26H6.502
		c-0.144,0-0.26-0.116-0.26-0.26v-1.723c0-1.246-1.014-2.26-2.259-2.26H2.26c-0.144,0-0.26-0.116-0.26-0.26v-2.152
		c0-0.104,0.063-0.198,0.157-0.239l4.186-1.794l0.243-0.148c1.691-1.397,3.355-2.829,5.005-4.277l15.921,7.666
		C24.697,42.853,21.957,45.964,19.321,49.154z M53.74,17.105c0,0.125-0.074,0.237-0.188,0.287l-4.155,1.78l-0.243,0.148
		c-1.691,1.397-3.355,2.829-5.005,4.277l-15.92-7.666c2.816-3.044,5.556-6.156,8.191-9.346l1.929-4.396
		C38.397,2.074,38.51,2,38.635,2H40.7c0.172,0,0.312,0.141,0.312,0.313v1.618c0,1.275,1.037,2.313,2.313,2.313h1.619
		c0.172,0,0.312,0.14,0.312,0.312v1.619c0,1.274,1.037,2.312,2.312,2.312h1.619c0.172,0,0.312,0.141,0.312,0.313v1.618
		c0,1.275,1.037,2.313,2.313,2.313h1.618c0.172,0,0.313,0.14,0.313,0.312V17.105z"/>
	<path d="M23.98,23.274c-2.534,2.534-2.534,6.657,0,9.192c1.268,1.268,2.932,1.9,4.597,1.9c1.664,0,3.329-0.634,4.596-1.9
		c1.228-1.228,1.904-2.86,1.904-4.597s-0.677-3.368-1.904-4.596s-2.859-1.904-4.596-1.904S25.208,22.047,23.98,23.274z
		 M33.077,27.87c0,1.202-0.468,2.332-1.318,3.183c-1.754,1.754-4.608,1.754-6.364,0c-1.754-1.755-1.754-4.61,0-6.364
		c0.851-0.851,1.98-1.318,3.183-1.318s2.332,0.468,3.182,1.318C32.609,25.538,33.077,26.668,33.077,27.87z"/>
	<path d="M39.891,7.364c-0.391-0.391-1.023-0.391-1.414,0l-1.414,1.414c-0.391,0.391-0.391,1.023,0,1.414
		c0.195,0.195,0.451,0.293,0.707,0.293s0.512-0.098,0.707-0.293l1.414-1.414C40.281,8.388,40.281,7.755,39.891,7.364z"/>
	<path d="M42.719,10.192c-0.391-0.391-1.023-0.391-1.414,0l-1.414,1.415c-0.391,0.391-0.391,1.024,0,1.414
		c0.195,0.195,0.451,0.293,0.707,0.293s0.512-0.098,0.707-0.293l1.414-1.415C43.109,11.216,43.109,10.582,42.719,10.192z"/>
	<path d="M45.548,13.021c-0.391-0.391-1.023-0.391-1.414,0l-1.414,1.414c-0.391,0.391-0.391,1.023,0,1.414
		c0.195,0.195,0.451,0.293,0.707,0.293s0.512-0.098,0.707-0.293l1.414-1.414C45.938,14.045,45.938,13.412,45.548,13.021z"/>
	<path d="M46.962,15.85l-1.414,1.414c-0.391,0.391-0.391,1.023,0,1.414c0.195,0.195,0.451,0.293,0.707,0.293
		s0.512-0.098,0.707-0.293l1.414-1.414c0.391-0.391,0.391-1.023,0-1.414S47.353,15.459,46.962,15.85z"/>
	<path d="M10.192,37.063c-0.391-0.391-1.023-0.391-1.414,0l-1.414,1.414c-0.391,0.391-0.391,1.023,0,1.414
		c0.195,0.195,0.451,0.293,0.707,0.293s0.512-0.098,0.707-0.293l1.414-1.414C10.583,38.086,10.583,37.453,10.192,37.063z"/>
	<path d="M13.021,39.892c-0.391-0.391-1.023-0.391-1.414,0l-1.414,1.414c-0.391,0.391-0.391,1.023,0,1.414
		c0.195,0.195,0.451,0.293,0.707,0.293s0.512-0.098,0.707-0.293l1.414-1.414C13.411,40.915,13.411,40.282,13.021,39.892z"/>
	<path d="M15.849,42.72c-0.391-0.391-1.023-0.391-1.414,0l-1.414,1.414c-0.391,0.391-0.391,1.023,0,1.414
		c0.195,0.195,0.451,0.293,0.707,0.293s0.512-0.098,0.707-0.293l1.414-1.414C16.239,43.743,16.239,43.11,15.849,42.72z"/>
	<path d="M17.264,45.548l-1.414,1.414c-0.391,0.391-0.391,1.023,0,1.414c0.195,0.195,0.451,0.293,0.707,0.293
		s0.512-0.098,0.707-0.293l1.414-1.414c0.391-0.391,0.391-1.023,0-1.414S17.654,45.157,17.264,45.548z"/>
</g>
<g>
</g>
<g>
</g>
<g>
</g>
<g>
</g>
<g>
</g>
<g>
</g>
<g>
</g>
<g>
</g>
<g>
</g>
<g>
</g>
<g>
</g>
<g>
</g>
<g>
</g>
<g>
</g>
<g>
</g>
</svg>
