<?xml version="1.0" encoding="iso-8859-1"?>
<!-- Generator: Adobe Illustrator 16.0.0, SVG Export Plug-In . SVG Version: 6.00 Build 0)  -->
<!DOCTYPE svg PUBLIC "-//W3C//DTD SVG 1.1//EN" "http://www.w3.org/Graphics/SVG/1.1/DTD/svg11.dtd">
<svg version="1.1" id="Capa_1" xmlns="http://www.w3.org/2000/svg" xmlns:xlink="http://www.w3.org/1999/xlink" x="0px" y="0px"
	 width="46.305px" height="46.305px" viewBox="0 0 46.305 46.305" style="enable-background:new 0 0 46.305 46.305;"
	 xml:space="preserve">
<g>
	<g>
		<path d="M40.145,29.181c-2.392,4.191-7.896,3.941-12.699,3.885c-7.675-0.094-18.487,0.915-23.329-3.47
			c-7.266,1.704-4.145,3.78,3.396,4.902c3.973,5.322,27.317,5.326,31.292,0C48.202,33.1,48.903,30.717,40.145,29.181z"/>
		<path d="M25.175,31.041c7.918,0,14.688,1.054,14.053-7.846c-1.733,3.532-4.08,6.123-8.056,6.123
			c-8.455,0-12.638-13.251,1.578-16.991c-2.188-1.397-4.787-2.208-7.575-2.208c-7.78,0-21.344,6.308-21.344,14.089
			C3.831,31.989,17.395,31.041,25.175,31.041z"/>
		<path d="M27.122,25.636c2.237,2.236,5.864,2.236,8.102,0c1.848-1.848,4.063-6.539,3.521-9.376c0.08-0.08,2.967-2.963,3.042-3.048
			c1.559,1.871,4.283-0.64,2.583-2.341c-0.483-0.482-1.151-0.415-1.785-0.415l0,0c-0.426,0-0.384-0.358-0.368-0.462
			c0.077-0.514,0.082-1.078-0.318-1.6c-1.352-1.762-4.365,0.9-2.35,2.581c-0.087,0.078-2.966,2.958-3.048,3.041
			c-2.838-0.544-7.529,1.671-9.376,3.52C24.884,19.771,24.884,23.398,27.122,25.636z"/>
	</g>
</g>
<g>
</g>
<g>
</g>
<g>
</g>
<g>
</g>
<g>
</g>
<g>
</g>
<g>
</g>
<g>
</g>
<g>
</g>
<g>
</g>
<g>
</g>
<g>
</g>
<g>
</g>
<g>
</g>
<g>
</g>
</svg>
