<?xml version="1.0" encoding="iso-8859-1"?>
<!-- Generator: Adobe Illustrator 18.0.0, SVG Export Plug-In . SVG Version: 6.00 Build 0)  -->
<!DOCTYPE svg PUBLIC "-//W3C//DTD SVG 1.1//EN" "http://www.w3.org/Graphics/SVG/1.1/DTD/svg11.dtd">
<svg version="1.1" id="Capa_1" xmlns="http://www.w3.org/2000/svg" xmlns:xlink="http://www.w3.org/1999/xlink" x="0px" y="0px"
	 viewBox="0 0 322.318 322.318" style="enable-background:new 0 0 322.318 322.318;" xml:space="preserve">
<g>
	<g>
		<g>
			<path d="M161.159,287.321c-16.179,0-31.482-4.477-43.093-12.605c-12.424-8.698-19.267-20.525-19.267-33.303
				c0-12.777,6.843-24.605,19.267-33.303c11.611-8.129,26.914-12.605,43.093-12.605s31.482,4.477,43.093,12.605
				c12.424,8.698,19.267,20.525,19.267,33.303c0,12.777-6.843,24.605-19.267,33.303
				C192.642,282.845,177.338,287.321,161.159,287.321z M161.159,210.505c-25.671,0-47.359,14.154-47.359,30.908
				s21.688,30.908,47.359,30.908s47.359-14.154,47.359-30.908S186.83,210.505,161.159,210.505z"/>
		</g>
		<path d="M280.066,80.145c-6.389-8.356-15.348-13.313-26.643-14.763c-10.074-15.02-27.203-24.928-46.607-24.928
			c-1.782,0-3.543,0.094-5.283,0.257C194.77,17.046,172.807,0,147.609,0c-29.393,0-53.559,22.733-55.883,51.538
			c-8.373,2.832-15.864,7.593-21.947,13.746c-11.768,1.307-21.061,6.338-27.617,14.979c-14.695,19.369-9.453,49.982-9.223,51.276
			c0.006,0.033,37.62,184.774,37.62,184.774c0.712,3.494,3.784,6.004,7.349,6.004h166.501c3.565,0,6.638-2.51,7.349-6.004
			c0,0,37.615-184.741,37.621-184.774C289.61,130.241,294.872,99.509,280.066,80.145z M206.816,55.454
			c22.653,0,41.083,18.431,41.083,41.084c0,9.591-3.346,18.832-9.439,26.188h-11.688c-4.142,0-7.5,3.357-7.5,7.5
			c0,0.74-0.049,1.476-0.121,2.207c-3.48-3.493-7.387-6.478-11.601-8.922c14.544-0.393,26.256-12.337,26.256-26.973
			c0-14.884-12.108-26.993-26.991-26.993c-14.884,0-26.992,12.109-26.992,26.993c0,8.055,3.551,15.293,9.166,20.242
			c-3.119-0.536-6.303-0.828-9.533-0.828c-2.882,0-5.711,0.232-8.479,0.653c-3.428-6.11-5.246-12.995-5.246-20.067
			C165.732,73.885,184.163,55.454,206.816,55.454z M179.457,145.044c-12.949,0-23.795,9.168-26.395,21.354
			c-4.829-0.447-9.488-1.279-13.891-2.452c1.414-7.102,4.654-13.522,9.198-18.773c1.042-0.997,2.034-2.045,2.997-3.119
			c7.365-6.895,17.258-11.101,28.09-11.101c12.982,0,25.063,6.072,32.818,16.366c-2.891,3.338-6.605,6.369-10.928,9.006
			C196.37,149.425,188.275,145.044,179.457,145.044z M187.061,162.788c-5.637,1.82-11.766,3.082-18.198,3.645
			c2.015-3.796,6.005-6.39,10.595-6.39C182.293,160.044,184.961,161.066,187.061,162.788z M135.672,55.01
			c0.547-6.11,5.688-10.918,11.938-10.918c6.612,0,11.992,5.38,11.992,11.992c0,5.244-3.352,9.715-8.07,11.337
			C147.051,62.39,141.684,58.173,135.672,55.01z M194.824,96.538c0-6.613,5.379-11.993,11.992-11.993
			c6.611,0,11.991,5.38,11.991,11.993c0,6.612-5.38,11.991-11.991,11.991C200.203,108.529,194.824,103.15,194.824,96.538z
			 M147.609,15c18.212,0,34.12,12.149,39.301,29.115c-4.58,1.747-8.875,4.077-12.793,6.9c-2.379-12.468-13.357-21.924-26.508-21.924
			c-12.728,0-23.42,8.856-26.251,20.73c-3.778-0.806-7.692-1.238-11.708-1.238c-0.816,0-1.627,0.027-2.436,0.062
			C110.726,29.532,127.497,15,147.609,15z M109.65,63.584c22.652,0,41.082,18.43,41.082,41.083s-18.43,41.083-41.082,41.083
			c-0.301,0-0.604-0.018-0.908-0.024c-3.502-4.556-5.52-9.605-5.669-14.881c2.106,0.529,4.308,0.813,6.576,0.813
			c14.884,0,26.992-12.108,26.992-26.991c0-14.884-12.108-26.992-26.992-26.992c-14.883,0-26.991,12.108-26.991,26.992
			c0,6.938,2.633,13.271,6.951,18.059H72.746c-2.736-5.59-4.18-11.782-4.18-18.059C68.566,82.014,86.997,63.584,109.65,63.584z
			 M97.658,104.667c0-6.612,5.379-11.992,11.991-11.992c6.612,0,11.992,5.38,11.992,11.992s-5.38,11.991-11.992,11.991
			C103.037,116.658,97.658,111.279,97.658,104.667z M54.137,89.298c0.74-0.973,1.557-1.842,2.412-2.66
			c-1.93,5.661-2.982,11.724-2.982,18.029c0,6.166,1.043,12.271,3.008,18.059h-9.537C46.461,114.28,46.682,99.092,54.137,89.298z
			 M238.282,307.318H84.035L49.504,137.726h39.284c2.293,11.432,9.832,21.845,21.794,29.875
			c13.615,9.142,31.578,14.176,50.577,14.176s36.962-5.034,50.577-14.176c11.962-8.03,19.501-18.443,21.794-29.875h39.284
			L238.282,307.318z M275.283,122.726h-18.881c4.232-8.009,6.497-16.979,6.497-26.188c0-4.545-0.558-8.96-1.583-13.194
			c2.647,1.474,4.918,3.413,6.811,5.88C275.639,99.016,275.859,114.264,275.283,122.726z"/>
	</g>
</g>
<g>
</g>
<g>
</g>
<g>
</g>
<g>
</g>
<g>
</g>
<g>
</g>
<g>
</g>
<g>
</g>
<g>
</g>
<g>
</g>
<g>
</g>
<g>
</g>
<g>
</g>
<g>
</g>
<g>
</g>
</svg>
