<?xml version="1.0" encoding="iso-8859-1"?>
<!-- Generator: Adobe Illustrator 18.0.0, SVG Export Plug-In . SVG Version: 6.00 Build 0)  -->
<!DOCTYPE svg PUBLIC "-//W3C//DTD SVG 1.1//EN" "http://www.w3.org/Graphics/SVG/1.1/DTD/svg11.dtd">
<svg version="1.1" id="Capa_1" xmlns="http://www.w3.org/2000/svg" xmlns:xlink="http://www.w3.org/1999/xlink" x="0px" y="0px"
	 viewBox="0 0 400.302 400.302" style="enable-background:new 0 0 400.302 400.302;" xml:space="preserve">
<path d="M399.594,106.933l0.006-0.003l-29.112-60c-1.17-2.413-3.616-3.944-6.298-3.944H36.112c-2.682,0-5.127,1.532-6.298,3.944
	l-29.112,60l0.006,0.003C0.259,107.857,0,108.89,0,109.986v240.33c0,3.866,3.134,7,7,7h386.302c3.866,0,7-3.134,7-7v-240.33
	C400.302,108.89,400.043,107.857,399.594,106.933z M309.138,231.083l4.152-63.187c0.28-4.292,2.217-8.217,5.453-11.053
	c3.238-2.838,7.384-4.247,11.685-3.96l24.356,1.601c8.864,0.585,15.605,8.274,15.027,17.137l-3.915,59.462H309.138z M29.505,231.083
	l26.577-82.218c2.713-8.393,11.752-13.015,20.15-10.301l14.941,4.829c6.98,2.258,11.334,8.889,11.051,15.882
	c-11.331-6.904-26.343-5.656-36.372,3.943l-11.336,10.862c-5.789,5.541-9.072,13.007-9.244,21.021
	c-0.172,8.014,2.788,15.612,8.331,21.392l13.974,14.591H29.505z M131.656,188.553l-17.611-18.385l0.752-2.319
	c5.087-15.74-3.577-32.687-19.316-37.777l-14.942-4.829c-15.744-5.089-32.689,3.577-37.777,19.316l-27.969,86.524H14V116.986
	h117.656V188.553z M86.963,231.083l-23.252-24.278c-2.956-3.082-4.533-7.132-4.442-11.405c0.092-4.273,1.841-8.253,4.93-11.209
	l11.336-10.862c6.372-6.101,16.523-5.879,22.628,0.493l2.682,2.798c0.064,0.073,0.13,0.144,0.197,0.214l51.966,54.249H86.963z
	 M172.396,231.083l-26.74-27.915V95.509c0-4.798,3.904-8.702,8.703-8.702h30.296c4.799,0,8.703,3.904,8.703,8.702v89.607
	l-17.108,45.967H172.396z M207.357,116.986h28.778c-0.704,3.347-0.824,6.779-0.354,10.171c-12.185,0.043-23.655,7.53-28.151,19.608
	l-0.273,0.733V116.986z M220.751,151.648c3.1-8.329,12.396-12.583,20.722-9.482l22.882,8.513
	c8.328,3.099,12.582,12.395,9.482,20.722l-22.215,59.682h-60.435L220.751,151.648z M269.642,222.807l2.992,8.276h-6.072
	L269.642,222.807z M287.52,231.083l-10.325-28.565l9.765-26.233c2.806-7.539,2.508-15.719-0.839-23.033
	c-3.347-7.313-9.342-12.887-16.881-15.693l-17.93-6.671l-0.847-2.348c-1.453-4.019-1.253-8.362,0.562-12.23
	c1.815-3.869,5.03-6.8,9.049-8.253l24.503-8.853c4.018-1.453,8.361-1.253,12.23,0.562s6.8,5.029,8.253,9.048l11.822,32.729
	c-2.641,1.206-5.122,2.804-7.367,4.771c-6.05,5.303-9.671,12.644-10.195,20.667l-4.211,64.102H287.52z M355.703,140.513
	l-24.357-1.601c-0.18-0.012-0.359-0.014-0.538-0.022l-7.912-21.904h63.407v114.097h-6.377l3.855-58.546
	C384.861,155.971,372.267,141.606,355.703,140.513z M40.496,56.986h319.31l22.32,46h-64.317c-2.845-7.035-8.15-12.654-15.056-15.895
	c-7.254-3.405-15.4-3.779-22.936-1.055l-24.503,8.853c-4.705,1.701-8.82,4.482-12.077,8.096h-35.88v-7.478
	c0-12.518-10.185-22.702-22.703-22.702h-30.296c-12.518,0-22.703,10.184-22.703,22.702v7.478H18.177L40.496,56.986z M14,245.083
	h39.653v98.233H14V245.083z M67.653,245.083h6.888v98.233h-6.888V245.083z M88.541,343.316v-98.233h223.221v98.233H88.541z
	 M325.762,343.316v-98.233h6.887v98.233H325.762z M346.649,343.316v-98.233h39.653v98.233H346.649z"/>
<g>
</g>
<g>
</g>
<g>
</g>
<g>
</g>
<g>
</g>
<g>
</g>
<g>
</g>
<g>
</g>
<g>
</g>
<g>
</g>
<g>
</g>
<g>
</g>
<g>
</g>
<g>
</g>
<g>
</g>
</svg>
