<?xml version="1.0" encoding="iso-8859-1"?>
<!-- Generator: Adobe Illustrator 18.0.0, SVG Export Plug-In . SVG Version: 6.00 Build 0)  -->
<!DOCTYPE svg PUBLIC "-//W3C//DTD SVG 1.1//EN" "http://www.w3.org/Graphics/SVG/1.1/DTD/svg11.dtd">
<svg xmlns="http://www.w3.org/2000/svg" xmlns:xlink="http://www.w3.org/1999/xlink" version="1.1" id="Capa_1" x="0px" y="0px" viewBox="0 0 512 512" style="enable-background:new 0 0 512 512;" xml:space="preserve" width="512px" height="512px">
<g>
	<path d="M399.844,352c-70.148,0.344-127.5,57.695-127.844,127.844c-0.039,8.539,3.336,16.742,9.375,22.781   c6,6.008,14.141,9.375,22.625,9.375c0.055,0,0.102,0,0.156,0c70.148-0.344,127.5-57.695,127.844-127.844   c0.039-8.539-3.336-16.742-9.375-22.781C416.586,355.328,408.32,352.461,399.844,352z" fill="#FFFFFF"/>
	<path d="M399.844,176c-70.148,0.344-127.5,57.695-127.844,127.844c-0.039,8.539,3.336,16.742,9.375,22.781   c6,6.008,14.141,9.375,22.625,9.375c0.055,0,0.102,0,0.156,0c70.148-0.344,127.5-57.695,127.844-127.844   c0.039-8.539-3.336-16.742-9.375-22.781C416.586,179.328,408.32,176.461,399.844,176z" fill="#FFFFFF"/>
	<path d="M112.156,352c-9.023,0.281-16.742,3.328-22.781,9.375c-6.039,6.039-9.414,14.242-9.375,22.781   c0.344,70.148,57.695,127.5,127.844,127.844c0.055,0,0.102,0,0.156,0c8.484,0,16.625-3.367,22.625-9.375   c6.039-6.039,9.414-14.242,9.375-22.781C239.656,409.695,182.305,352.344,112.156,352z" fill="#FFFFFF"/>
	<path d="M112.156,176c-9.023,0.281-16.742,3.328-22.781,9.375c-6.039,6.039-9.414,14.242-9.375,22.781   c0.344,70.148,57.695,127.5,127.844,127.844c0.055,0,0.102,0,0.156,0c8.484,0,16.625-3.367,22.625-9.375   c6.039-6.039,9.414-14.242,9.375-22.781C239.656,233.695,182.305,176.344,112.156,176z" fill="#FFFFFF"/>
	<path d="M320,104c0-36.102-14.969-69.977-42.148-95.375c-12.297-11.5-31.406-11.5-43.703,0C206.969,34.023,192,67.898,192,104   s14.969,69.977,42.148,95.375c6.148,5.75,14,8.625,21.852,8.625c7.852,0,15.703-2.875,21.852-8.625   C305.031,173.977,320,140.102,320,104z" fill="#FFFFFF"/>
</g>
<g>
</g>
<g>
</g>
<g>
</g>
<g>
</g>
<g>
</g>
<g>
</g>
<g>
</g>
<g>
</g>
<g>
</g>
<g>
</g>
<g>
</g>
<g>
</g>
<g>
</g>
<g>
</g>
<g>
</g>
</svg>
