<?xml version="1.0" encoding="iso-8859-1"?>
<!-- Generator: Adobe Illustrator 18.0.0, SVG Export Plug-In . SVG Version: 6.00 Build 0)  -->
<!DOCTYPE svg PUBLIC "-//W3C//DTD SVG 1.1//EN" "http://www.w3.org/Graphics/SVG/1.1/DTD/svg11.dtd">
<svg xmlns="http://www.w3.org/2000/svg" xmlns:xlink="http://www.w3.org/1999/xlink" version="1.1" id="Capa_1" x="0px" y="0px" viewBox="0 0 512 512" style="enable-background:new 0 0 512 512;" xml:space="preserve" width="512px" height="512px">
<g>
	<path d="M491.438,239.539l-36.906-61.523C441.945,157.031,418.687,144,393.828,144h-51.656c-24.859,0-48.117,13.031-60.695,34.016   l-36.914,61.523c-6.086,10.133-6.086,22.789,0,32.922l36.914,61.523C294.063,354.969,317.313,368,342.172,368h51.656   c24.859,0,48.117-13.031,60.695-34.016l36.914-61.523C497.523,262.328,497.523,249.672,491.438,239.539z M368,208   c-26.469,0-48,21.531-48,48c0,8.836-7.164,16-16,16c-8.836,0-16-7.164-16-16c0-44.109,35.891-80,80-80c8.836,0,16,7.164,16,16   S376.836,208,368,208z" fill="#FFFFFF"/>
	<path d="M57.477,189.984C70.062,210.969,93.312,224,118.172,224h51.656c24.859,0,48.117-13.031,60.695-34.016l36.914-61.523   c6.086-10.133,6.086-22.789,0-32.922l-36.906-61.524C217.945,13.031,194.687,0,169.828,0h-51.656   C93.312,0,70.055,13.031,57.477,34.016L20.562,95.539c-6.086,10.133-6.086,22.789,0,32.922L57.477,189.984z M144,32   c8.836,0,16,7.164,16,16s-7.164,16-16,16c-26.469,0-48,21.531-48,48c0,8.836-7.164,16-16,16c-8.836,0-16-7.164-16-16   C64,67.891,99.891,32,144,32z" fill="#FFFFFF"/>
	<path d="M230.531,322.016C217.945,301.031,194.687,288,169.828,288h-51.656c-24.859,0-48.117,13.031-60.695,34.016l-36.914,61.523   c-6.086,10.133-6.086,22.789,0,32.922l36.914,61.523C70.062,498.969,93.312,512,118.172,512h51.656   c24.859,0,48.117-13.031,60.695-34.016l36.914-61.523c6.086-10.133,6.086-22.789,0-32.922L230.531,322.016z M144,352   c-26.469,0-48,21.531-48,48c0,8.836-7.164,16-16,16c-8.836,0-16-7.164-16-16c0-44.109,35.891-80,80-80c8.836,0,16,7.164,16,16   S152.836,352,144,352z" fill="#FFFFFF"/>
</g>
<g>
</g>
<g>
</g>
<g>
</g>
<g>
</g>
<g>
</g>
<g>
</g>
<g>
</g>
<g>
</g>
<g>
</g>
<g>
</g>
<g>
</g>
<g>
</g>
<g>
</g>
<g>
</g>
<g>
</g>
</svg>
