<?xml version="1.0" encoding="iso-8859-1"?>
<!-- Generator: Adobe Illustrator 19.0.0, SVG Export Plug-In . SVG Version: 6.00 Build 0)  -->
<svg xmlns="http://www.w3.org/2000/svg" xmlns:xlink="http://www.w3.org/1999/xlink" version="1.1" id="Layer_1" x="0px" y="0px" viewBox="0 0 512 512" style="enable-background:new 0 0 512 512;" xml:space="preserve" width="512px" height="512px">
<g>
	<g>
		<g>
			<path d="M194.371,51.2h10.428v10.377c0,11.102-1.92,21.973-5.521,32.29h113.442c-3.601-10.317-5.521-21.188-5.521-32.29V51.2     h8.533c8.073,0,17.067-6.229,17.067-15.172V15.172C332.798,6.229,323.804,0,315.732,0H194.371     c-8.363,0-15.172,6.801-15.172,15.172v20.855C179.198,44.399,186.008,51.2,194.371,51.2z" fill="#FFFFFF"/>
			<path d="M373.188,190.268l-49.51-74.266c-1.101-1.655-2.116-3.362-3.115-5.069H191.437c-0.998,1.707-2.014,3.413-3.115,5.069     l-49.51,74.266c-12.655,18.978-19.345,41.071-19.345,63.889v198.11h273.067v-198.11     C392.533,231.339,385.843,209.246,373.188,190.268z M349.858,264.533c-4.71,0-8.533-3.823-8.533-8.533     c0-13.295-4.011-27.247-10.735-37.333l-30.37-43.128c-2.714-3.857-1.783-9.182,2.065-11.895     c3.849-2.705,9.173-1.783,11.896,2.065l30.49,43.315c8.764,13.141,13.722,30.199,13.722,46.976     C358.391,260.71,354.569,264.533,349.858,264.533z" fill="#FFFFFF"/>
			<path d="M119.467,486.4c0,14.114,11.486,25.6,25.6,25.6h221.867c14.114,0,25.6-11.486,25.6-25.6v-17.067H119.467V486.4z" fill="#FFFFFF"/>
		</g>
	</g>
</g>
<g>
</g>
<g>
</g>
<g>
</g>
<g>
</g>
<g>
</g>
<g>
</g>
<g>
</g>
<g>
</g>
<g>
</g>
<g>
</g>
<g>
</g>
<g>
</g>
<g>
</g>
<g>
</g>
<g>
</g>
</svg>
