<?xml version="1.0" encoding="iso-8859-1"?>
<!-- Generator: Adobe Illustrator 18.0.0, SVG Export Plug-In . SVG Version: 6.00 Build 0)  -->
<!DOCTYPE svg PUBLIC "-//W3C//DTD SVG 1.1//EN" "http://www.w3.org/Graphics/SVG/1.1/DTD/svg11.dtd">
<svg xmlns="http://www.w3.org/2000/svg" xmlns:xlink="http://www.w3.org/1999/xlink" version="1.1" id="Capa_1" x="0px" y="0px" viewBox="0 0 512 512" style="enable-background:new 0 0 512 512;" xml:space="preserve" width="512px" height="512px">
<path d="M346.305,255.478c0.063-18.847,6.164-38.443,17.66-56.657c32.914-52.186,24.566-121.054-19.834-163.758  c-48.605-46.761-127.672-46.737-176.262-0.008c-44.4,42.712-52.748,111.58-19.834,163.766c11.496,18.214,17.598,37.811,17.66,57.705  c-0.063,18.847-6.164,38.444-17.66,56.657c-32.914,52.187-24.566,121.054,19.834,163.758C192.172,500.322,224.078,512,256,512  c31.914,0,63.836-11.687,88.131-35.052c44.4-42.712,52.748-111.579,19.834-163.766C352.469,294.97,346.367,275.372,346.305,255.478z   M208,432.002c-8.836,0-16-7.164-16-16c0-8.837,7.164-16,16-16c8.836,0,16,7.163,16,16C224,424.838,216.836,432.002,208,432.002z   M208,112.002c-8.836,0-16-7.164-16-16c0-8.837,7.164-16,16-16c8.836,0,16,7.163,16,16C224,104.838,216.836,112.002,208,112.002z   M256,368.002c-8.836,0-16-7.164-16-16c0-8.837,7.164-16,16-16c8.836,0,16,7.163,16,16C272,360.838,264.836,368.002,256,368.002z   M256,176.002c-8.836,0-16-7.164-16-16c0-8.837,7.164-16,16-16c8.836,0,16,7.163,16,16C272,168.838,264.836,176.002,256,176.002z   M304,432.002c-8.836,0-16-7.164-16-16c0-8.837,7.164-16,16-16s16,7.163,16,16C320,424.838,312.836,432.002,304,432.002z   M304,112.002c-8.836,0-16-7.164-16-16c0-8.837,7.164-16,16-16s16,7.163,16,16C320,104.838,312.836,112.002,304,112.002z" fill="#FFFFFF"/>
<g>
</g>
<g>
</g>
<g>
</g>
<g>
</g>
<g>
</g>
<g>
</g>
<g>
</g>
<g>
</g>
<g>
</g>
<g>
</g>
<g>
</g>
<g>
</g>
<g>
</g>
<g>
</g>
<g>
</g>
</svg>
