<?xml version="1.0" encoding="iso-8859-1"?>
<!-- Generator: Adobe Illustrator 18.0.0, SVG Export Plug-In . SVG Version: 6.00 Build 0)  -->
<!DOCTYPE svg PUBLIC "-//W3C//DTD SVG 1.1//EN" "http://www.w3.org/Graphics/SVG/1.1/DTD/svg11.dtd">
<svg xmlns="http://www.w3.org/2000/svg" xmlns:xlink="http://www.w3.org/1999/xlink" version="1.1" id="Capa_1" x="0px" y="0px" viewBox="0 0 528 528" style="enable-background:new 0 0 528 528;" xml:space="preserve" width="512px" height="512px">
<path d="M408,32c-13.266,0-25.598,4.064-35.828,11.003C363.43,18.054,339.897,0,312,0c-19.205,0-36.26,8.679-48,22.118  C252.26,8.679,235.205,0,216,0c-27.896,0-51.43,18.054-60.172,43.003C145.598,36.064,133.266,32,120,32c-35.289,0-64,28.711-64,64  s28.711,64,64,64c39.07,0,64,66.336,64,112v176c0,44.109,35.891,80,80,80s80-35.891,80-80V272c0-45.664,24.93-112,64-112  c35.289,0,64-28.711,64-64S443.289,32,408,32z M183.109,118.613C192.756,124.444,203.93,128,216,128c5.557,0,10.855-0.936,16-2.272  v62.418C220.914,160.03,204.371,135.337,183.109,118.613z M296,188.145v-62.418c5.145,1.337,10.443,2.272,16,2.272  c12.07,0,23.244-3.556,32.891-9.387C323.629,135.337,307.086,160.03,296,188.145z" fill="#FFFFFF"/>
<g>
</g>
<g>
</g>
<g>
</g>
<g>
</g>
<g>
</g>
<g>
</g>
<g>
</g>
<g>
</g>
<g>
</g>
<g>
</g>
<g>
</g>
<g>
</g>
<g>
</g>
<g>
</g>
<g>
</g>
</svg>
