<?xml version="1.0" encoding="iso-8859-1"?>
<!-- Generator: Adobe Illustrator 19.0.0, SVG Export Plug-In . SVG Version: 6.00 Build 0)  -->
<svg version="1.1" id="Layer_1" xmlns="http://www.w3.org/2000/svg" xmlns:xlink="http://www.w3.org/1999/xlink" x="0px" y="0px"
	 viewBox="0 0 512 512" style="enable-background:new 0 0 512 512;" xml:space="preserve">
<g>
	<path style="fill:#E0A03D;" d="M428.838,134.085l-50.923-50.923c-20.865-20.866-54.695-20.865-75.56,0l-12.814-12.815
		L10.745,349.144l152.112,152.11l278.795-278.794l-12.815-12.815C449.703,188.782,449.704,154.951,428.838,134.085z"/>
	<polygon style="fill:#E0A03D;" points="419.636,124.882 387.119,92.365 482.352,10.359 501.641,29.65 	"/>
</g>
<path style="fill:#491E17;" d="M434.21,128.712l-4.216-4.215L512,29.264L482.738,0l-95.233,82.006l-4.217-4.217
	c-11.526-11.526-26.851-17.875-43.153-17.875c-13.741,0-26.787,4.51-37.451,12.831L289.54,59.601L0.001,349.144L162.857,512
	l289.54-289.538l-13.148-13.148C457.864,185.392,456.186,150.688,434.21,128.712z M481.966,20.718l9.317,9.318l-72.062,83.685
	l-20.941-20.94L481.966,20.718z M428.385,198.446l-73.122-73.122l-10.745,10.746l73.575,73.575l-0.001,0.001l12.816,12.815
	l-268.05,268.05L21.49,349.144l10.746-10.746l110.916,110.916l10.745-10.746L42.981,327.653l246.56-246.562l7.442,7.443
	l-0.001,0.002l33.208,33.208l10.744-10.745l-27.386-27.385c7.711-5.517,16.917-8.502,26.588-8.502
	c12.242,0,23.751,4.767,32.408,13.425l3.415,3.415l0,0l4.663,4.664l42.844,42.843C439.505,155.496,441.138,180.559,428.385,198.446z
	"/>
<g>
</g>
<g>
</g>
<g>
</g>
<g>
</g>
<g>
</g>
<g>
</g>
<g>
</g>
<g>
</g>
<g>
</g>
<g>
</g>
<g>
</g>
<g>
</g>
<g>
</g>
<g>
</g>
<g>
</g>
</svg>
