<?xml version="1.0" encoding="iso-8859-1"?>
<!-- Generator: Adobe Illustrator 18.0.0, SVG Export Plug-In . SVG Version: 6.00 Build 0)  -->
<!DOCTYPE svg PUBLIC "-//W3C//DTD SVG 1.1//EN" "http://www.w3.org/Graphics/SVG/1.1/DTD/svg11.dtd">
<svg xmlns="http://www.w3.org/2000/svg" xmlns:xlink="http://www.w3.org/1999/xlink" version="1.1" id="Capa_1" x="0px" y="0px" viewBox="0 0 51.44 51.44" style="enable-background:new 0 0 51.44 51.44;" xml:space="preserve" width="512px" height="512px">
<g>
	<path d="M47.352,21.707l-0.38-1.521l-1.415,1.145c-0.508-1.412-1.039-2.263-1.283-2.61l-0.271-0.386l-0.469-0.036   c-0.158-0.012-0.344-0.02-0.556-0.02c-0.354,0-0.843,0.026-1.434,0.101l0.624-1.909l-1.745,0.425   c-2.831,0.688-7.237,2.443-12.214,6.946c-1.702,1.812-3.215,3.873-4.496,6.126c-1.284,2.253-2.284,4.606-2.993,7.075   c-0.013,0.064-0.019,0.12-0.031,0.183c-0.465-0.089-0.905-0.281-1.275-0.563c-0.173-0.058-0.457-0.137-0.625-0.184   c-2.572-0.715-7.927-2.204-7.736-12.057l0.009-0.16c0.269-2.682,0.87-5.359,1.784-7.96c0.658-1.877,1.468-3.672,2.409-5.365   c-2.366-1.398-4.111-1.803-4.701-1.906C10.26,8.981,9.959,9.064,9.733,9.258c-0.352,0.301-2.34,2.134-4.01,6.011l0.56-0.063   c1.678-0.032,3.257-0.236,4.789-0.614c0.532-0.135,1.078,0.194,1.21,0.731c0.132,0.536-0.195,1.078-0.731,1.21   c-1.678,0.414-3.407,0.639-5.139,0.667l-1.486,0.168c-0.767,2.325-1.369,5.196-1.546,8.702c0.078,2.485,0.466,5.013,1.153,7.511   c0.684,2.499,1.641,4.87,2.886,7.12c2.415,3.634,4.925,5.4,7.675,5.4c1.278,0,2.359-0.376,3.227-0.677   c0.487-0.17,0.963-0.365,1.25-0.326c0.291,0.051,0.594-0.031,0.821-0.226c0.106-0.09,0.403-0.173,0.729-0.248   c0.996,2.025,2.716,2.862,3.967,3.468c0.442,0.214,0.993,0.48,1.114,0.654l0.271,0.385l0.469,0.036   c0.211,0.017,0.721,0.354,1.131,0.624c1.053,0.696,2.494,1.648,4.512,1.648c2.227,0,4.588-1.155,7.277-3.591   c1.703-1.813,3.216-3.874,4.496-6.127c1.284-2.252,2.284-4.605,2.993-7.075C48.546,28.73,48.011,24.345,47.352,21.707z    M42.896,20.279c0.262,0.455,0.65,1.24,1.003,2.393l-5.111,4.136l2.056-6.289C41.744,20.335,42.435,20.284,42.896,20.279z    M33.573,27.274c-0.067,0.041-6.687,4.146-7.086,12.111c-0.026,0.535-0.468,0.95-0.998,0.95c-0.017,0-0.034,0-0.051-0.001   c-0.551-0.028-0.976-0.497-0.948-1.049c0.454-9.054,7.741-13.538,8.051-13.724c0.472-0.286,1.085-0.133,1.371,0.34   C34.197,26.374,34.045,26.989,33.573,27.274z" fill="#FFFFFF"/>
	<path d="M13.052,24.463c-0.161,8.302,3.867,9.422,6.273,10.091c0.028,0.008,0.057,0.016,0.086,0.024   c0.326-0.923,0.696-1.836,1.104-2.735c0.817-6.466,2.287-12.544,4.388-18.093c0.195-0.516,0.772-0.776,1.289-0.581   c0.517,0.196,0.777,0.773,0.581,1.29c-1.462,3.862-2.61,7.993-3.438,12.338c1.036-1.548,2.174-3.002,3.416-4.323l0.116-0.114   c4.664-4.219,8.912-6.182,11.946-7.095c-0.29-8.281-3.257-12.793-4.575-14.403l-0.466,0.649C32.404,3.167,31.192,5.06,29.8,7.7   c-0.179,0.34-0.526,0.534-0.886,0.534c-0.157,0-0.316-0.037-0.465-0.115c-0.488-0.258-0.676-0.862-0.418-1.351   C29.489,4,30.771,2.002,32.188,0.29L32.396,0c-1.803,0.311-8.026,1.94-14.334,10.136c-1.352,2.089-2.473,4.388-3.33,6.832   C13.872,19.413,13.308,21.907,13.052,24.463z" fill="#FFFFFF"/>
</g>
<g>
</g>
<g>
</g>
<g>
</g>
<g>
</g>
<g>
</g>
<g>
</g>
<g>
</g>
<g>
</g>
<g>
</g>
<g>
</g>
<g>
</g>
<g>
</g>
<g>
</g>
<g>
</g>
<g>
</g>
</svg>
