<?xml version="1.0" encoding="iso-8859-1"?>
<!-- Generator: Adobe Illustrator 18.1.1, SVG Export Plug-In . SVG Version: 6.00 Build 0)  -->
<svg xmlns="http://www.w3.org/2000/svg" xmlns:xlink="http://www.w3.org/1999/xlink" version="1.1" id="Capa_1" x="0px" y="0px" viewBox="0 0 472.777 472.777" style="enable-background:new 0 0 472.777 472.777;" xml:space="preserve" width="512px" height="512px">
<g>
	<g>
		<path d="M308.724,306.766c10.738-1.764,21.825-5.072,33.189-9.925c1.398-0.602,2.812-1.252,4.219-1.902    c3.999-1.829,8.023-3.78,12.079-5.983c1-0.545,2.048-1.008,3.121-1.439c-5.584-36.741-25.613-76.604-58.859-111.207    c-34.579-35.985-77.368-59.274-117.442-64.533c-0.39,0.935-0.732,1.886-1.211,2.78c-3.016,5.552-5.56,11.014-7.868,16.428    c-0.041,0.098-0.081,0.195-0.122,0.293c-3.503,8.259-6.251,16.379-8.104,24.337c1.057,0.374,2.146,0.658,3.3,0.748    c-3.422,4.129-3.788,10.437-1.309,15.168c-1.544,2.764-3.211,5.178-5.007,7.413c-0.39,14.745,2.268,28.986,8.007,42.781    c0.333,0.179,0.626,0.447,0.967,0.593c-0.089,0.634,0.016,1.26,0.033,1.894c3.65,8.218,8.462,16.265,14.314,24.182    c1.065-0.26,2.13-0.545,3.203-0.756c-0.74,0.772-1.309,1.707-1.861,2.642c4.544,5.958,9.697,11.835,15.493,17.631    c7.82,7.82,15.729,14.347,23.744,19.874c0.179-1.52,0.154-3.064-0.39-4.576c-2.146-5.958-4.755-11.681-7.625-17.273    c0.488,0.114,0.951,0.317,1.447,0.415c2.138,0.406,4.227,0.236,6.226-0.203c-0.618,2.13-0.715,4.438-0.203,6.755    c0.374,1.691,1.105,4.828,1.146,5.69c0.285,5.536,3.633,10.307,8.608,12.079c0,0.089-0.041,0.154-0.041,0.244v2.723    c8.177,4.706,16.501,8.194,24.987,10.616c0.423-1.276,0.732-2.65,0.732-4.227v-0.423c0.975,0.919,2.073,1.723,3.43,2.252    c0.236,1.496,0.74,2.78,1.349,3.975c7.389,1.666,14.908,2.495,22.589,2.495c4.202,0,8.486-0.333,12.811-0.853    c0.431-1.943,0.569-3.959,0.041-5.942c0.179-0.008,0.35-0.016,0.528-0.024C305.131,303.677,306.692,305.49,308.724,306.766z     M318.689,243.786c-0.602,0.602-1.13,1.292-1.593,2.032c-0.447-6.04-4.528-11.738-12.347-11.697c-0.61,0-1.211,0.041-1.821,0.049    c0.878-1.162,1.512-2.569,1.91-4.154c0.341-0.138,0.699-0.171,1.04-0.325c3.39-1.593,6.999-2.227,10.657-2.39    c2.747,4.438,5.259,8.893,7.584,13.372C322.201,241.209,320.339,242.136,318.689,243.786z M332.443,292.216    c1.349-2.829,1.991-5.975,1.512-8.909c1.902-0.146,3.698-0.821,5.357-1.723c0.805,3.601,1.431,7.153,1.918,10.673    C338.369,291.338,335.19,291.167,332.443,292.216z M262.293,205.077c-2.008,0.244-4.016,0.512-6.023,0.764    c-0.398-1.975-1.179-3.869-2.39-5.479c2.975-0.919,5.56-2.837,7.088-5.739C261.562,198.087,261.862,201.59,262.293,205.077z     M192.794,210.556c-0.52,0-1.024,0.065-1.536,0.081c0.106-2.317-0.406-4.617-1.821-6.576c-1.918-2.642-3.755-5.349-5.649-8.007    c2.105-2.561,4.048-5.235,5.869-7.999c1.821,7.397,2.837,14.94,3.552,22.532C193.054,210.597,192.932,210.556,192.794,210.556z     M201.183,152.169c0.545-0.935,1.024-1.918,1.325-3.008c1.536-5.576-1.073-11.64-5.934-14.501    c9.608,2.382,19.427,5.926,29.238,10.535c-0.561,3.926-1.122,7.852-1.731,11.762c-2.057-2.821-5.308-4.788-9.868-4.788    C214.213,152.169,201.183,152.169,201.183,152.169z M228.885,241.55c-2.65-0.504-4.918-1.13-6.568-1.918    c-0.439-0.211-0.886-0.35-1.333-0.512c-0.39-5.032-0.715-10.088-1.016-15.16c2.666,5.519,5.56,10.925,8.868,16.119    c0.545,0.854,1.219,1.423,1.861,2.065C230.112,241.908,229.527,241.672,228.885,241.55z M235.9,195.835    c-0.057-0.163-0.122-0.317-0.179-0.471c-3.219-9.088-13.046-10.518-19.549-7.031c-0.675-3.512-1.471-6.999-2.463-10.437h0.512    c3.552,0,6.292-1.219,8.324-3.073c1.105,4.194,3.902,7.747,8.616,9.047c2.065,0.569,4.308,0.496,6.454-0.033    c-0.537,1.406-0.886,2.975-0.886,4.78c0,2.894,0.821,5.251,2.113,7.137C237.851,195.786,236.875,195.786,235.9,195.835z     M246.418,176.546c0.211-0.545,0.439-1.081,0.553-1.674c1.057-5.406,1.894-10.852,2.691-16.298    c3.073,2.016,6.137,4.105,9.169,6.34c-1.073,1.788-1.756,3.934-1.756,6.544c0,3.658,1.292,6.454,3.243,8.502    c-0.114,0.309-0.333,0.553-0.431,0.878C256.758,176.888,251.279,175.473,246.418,176.546z M252.88,232.072    c3.869-0.553,7.755-1.049,11.632-1.528c0.098,1.967,0.284,3.926,0.358,5.901c-4.259,0.463-8.511,1.008-12.762,1.618    C252.921,236.242,253.197,234.202,252.88,232.072z M261.31,283.648c-1.577-2.227-3.877-3.723-6.422-4.503    c0-0.187,0.049-0.366,0.041-0.553c-0.219-4.284-1.146-8.356-2.065-12.526c-0.163-0.74-0.431-1.431-0.732-2.097    c4.446-0.699,8.901-1.325,13.355-1.837c0.081,5.552,0.195,11.104,0.333,16.639C263.813,279.95,262.334,281.681,261.31,283.648z     M288.792,211.133c-0.675-7.616-1.691-15.184-2.959-22.727c0.658,0.675,1.341,1.309,1.991,1.992    c4.081,4.251,7.885,8.616,11.534,13.038c-1.089,0.967-2.707,2.3-6.462,4.064C291.158,208.313,289.809,209.605,288.792,211.133z     M291.394,276.389c-0.146-5.406-0.284-10.819-0.39-16.233c4.568-0.171,9.153-0.293,13.745-0.317c0.683,0,1.268-0.146,1.894-0.236    c-2.422,2.073-4.04,5.186-4.04,9.34c0,2.739,0.748,4.983,1.918,6.82C300.148,276.024,295.775,276.235,291.394,276.389z" fill="#FFFFFF"/>
		<path d="M281.127,472.776c66.614,0,133.227-23.532,186.307-70.589c7.08-6.283,7.047-17.176,0.358-23.874    l-78.807-78.807c-4.04-4.04-9.966-6.088-15.859-6.088c-3.78,0-7.535,0.878-10.787,2.585c-0.073,0.041-0.171,0.049-0.244,0.089    c-4.016,2.178-8.039,4.146-12.063,6.007c-2.552,1.179-5.097,2.309-7.649,3.349c-8.462,3.463-16.94,6.202-25.41,8.055    c-6.535,1.431-13.071,2.309-19.606,2.682c-2.17,0.122-4.341,0.252-6.511,0.252c-4.991,0-9.974-0.463-14.948-1.146    c-6.381-0.87-12.762-2.227-19.118-4.292c-19.411-6.316-38.684-18.346-57.68-37.343c-3.633-3.633-6.958-7.275-10.088-10.925    c-3.325-3.869-6.316-7.755-9.096-11.648c-5.235-7.324-9.502-14.672-12.916-22.053c-3.65-7.885-6.348-15.802-8.08-23.735    c-1.593-7.291-2.455-14.599-2.552-21.923c-0.146-11.169,1.398-22.354,4.373-33.547c1.585-5.983,3.56-11.965,5.942-17.948    c0.114-0.293,0.211-0.585,0.333-0.878c2.715-6.698,5.901-13.388,9.519-20.069c0.049-0.081,0.081-0.171,0.13-0.252    c4.519-8.316,3.284-20.191-3.414-26.881L94.454,4.993c-3.308-3.308-7.641-4.991-11.941-4.991c-4.398,0-8.754,1.764-11.933,5.349    c-97.876,110.402-93.958,279.371,11.762,385.091C137.235,445.326,209.181,472.776,281.127,472.776z" fill="#FFFFFF"/>
	</g>
</g>
<g>
</g>
<g>
</g>
<g>
</g>
<g>
</g>
<g>
</g>
<g>
</g>
<g>
</g>
<g>
</g>
<g>
</g>
<g>
</g>
<g>
</g>
<g>
</g>
<g>
</g>
<g>
</g>
<g>
</g>
</svg>
